<?xml version="1.0" encoding="UTF-8" standalone="no"?>
<!DOCTYPE svg PUBLIC "-//W3C//DTD SVG 1.1//EN"
 "http://www.w3.org/Graphics/SVG/1.1/DTD/svg11.dtd">
<!-- Generated by graphviz version 2.40.1 (20161225.0304)
 -->
<!-- Title: G Pages: 1 -->
<svg width="871pt" height="330pt"
 viewBox="0.00 0.00 871.23 330.00" xmlns="http://www.w3.org/2000/svg" xmlns:xlink="http://www.w3.org/1999/xlink">
<g id="graph0" class="graph" transform="scale(1 1) rotate(0) translate(4 326)">
<title>G</title>
<polygon fill="#ffffff" stroke="transparent" points="-4,4 -4,-326 867.2296,-326 867.2296,4 -4,4"/>
<g id="clust1" class="cluster">
<title>cluster_block</title>
<polygon fill="none" stroke="#000000" points="8,-8 8,-314 855.2296,-314 855.2296,-8 8,-8"/>
<text text-anchor="middle" x="431.6148" y="-297.4" font-family="Times,serif" font-size="14.00" fill="#000000">block</text>
</g>
<g id="clust2" class="cluster">
<title>cluster_availableheader</title>
<polygon fill="none" stroke="#000000" points="293.585,-45 293.585,-123 481.881,-123 481.881,-45 293.585,-45"/>
<text text-anchor="middle" x="387.733" y="-106.4" font-family="Times,serif" font-size="14.00" fill="#000000">availableDataHeader</text>
</g>
<g id="clust3" class="cluster">
<title>cluster_body</title>
<polygon fill="none" stroke="#000000" points="665.0928,-46 665.0928,-187 847.2296,-187 847.2296,-46 665.0928,-46"/>
<text text-anchor="middle" x="756.1612" y="-170.4" font-family="Times,serif" font-size="14.00" fill="#000000">availableData</text>
</g>
<g id="clust4" class="cluster">
<title>cluster_lastcommit</title>
<polygon fill="none" stroke="#000000" points="339.0633,-143 339.0633,-221 436.4027,-221 436.4027,-143 339.0633,-143"/>
<text text-anchor="middle" x="387.733" y="-204.4" font-family="Times,serif" font-size="14.00" fill="#000000">lastCommit</text>
</g>
<g id="clust5" class="cluster">
<title>cluster_header</title>
<polygon fill="none" stroke="#000000" points="16,-16 16,-281 234.585,-281 234.585,-16 16,-16"/>
<text text-anchor="middle" x="125.2925" y="-264.4" font-family="Times,serif" font-size="14.00" fill="#000000">header</text>
</g>
<!-- struct4 -->
<g id="node1" class="node">
<title>struct4</title>
<polygon fill="none" stroke="#000000" points="301.585,-54 301.585,-90 473.881,-90 473.881,-54 301.585,-54"/>
<text text-anchor="middle" x="387.733" y="-67.9" font-family="Times,serif" font-size="14.00" fill="#000000">availableDataCommitments</text>
</g>
<!-- struct3 -->
<g id="node2" class="node">
<title>struct3</title>
<polygon fill="none" stroke="#000000" points="673.0928,-54.4 673.0928,-153.6 839.2296,-153.6 839.2296,-54.4 673.0928,-54.4"/>
<text text-anchor="middle" x="682.8428" y="-99.8" font-family="Times,serif" font-size="14.00" fill="#000000"> </text>
<polyline fill="none" stroke="#000000" points="692.5928,-54.4 692.5928,-153.6 "/>
<text text-anchor="middle" x="765.9112" y="-137" font-family="Times,serif" font-size="14.00" fill="#000000">transactionData</text>
<polyline fill="none" stroke="#000000" points="692.5928,-128.8 839.2296,-128.8 "/>
<text text-anchor="middle" x="765.9112" y="-112.2" font-family="Times,serif" font-size="14.00" fill="#000000">intermediateStateRoots</text>
<polyline fill="none" stroke="#000000" points="692.5928,-104 839.2296,-104 "/>
<text text-anchor="middle" x="765.9112" y="-87.4" font-family="Times,serif" font-size="14.00" fill="#000000">evidenceData</text>
<polyline fill="none" stroke="#000000" points="692.5928,-79.2 839.2296,-79.2 "/>
<text text-anchor="middle" x="765.9112" y="-62.6" font-family="Times,serif" font-size="14.00" fill="#000000">messageData</text>
</g>
<!-- struct4&#45;&gt;struct3 -->
<g id="edge3" class="edge">
<title>struct4:f0&#45;&gt;struct3</title>
<path fill="none" stroke="#000000" d="M473.9415,-79.3834C521.7235,-83.4869 582.2002,-88.6993 636.0928,-93.4 644.7264,-94.1531 653.709,-94.9399 662.7016,-95.7298"/>
<polygon fill="#000000" stroke="#000000" points="662.5725,-99.2319 672.8407,-96.6214 663.1857,-92.2588 662.5725,-99.2319"/>
<text text-anchor="middle" x="573.4869" y="-114" font-family="Times,serif" font-size="14.00" fill="#000000">NMT commitments to</text>
<text text-anchor="middle" x="573.4869" y="-97.2" font-family="Times,serif" font-size="14.00" fill="#000000">erasure&#45;coded data</text>
</g>
<!-- struct2 -->
<g id="node3" class="node">
<title>struct2</title>
<polygon fill="none" stroke="#000000" points="347.0633,-152 347.0633,-188 428.4027,-188 428.4027,-152 347.0633,-152"/>
<text text-anchor="middle" x="387.733" y="-165.9" font-family="Times,serif" font-size="14.00" fill="#000000">lastCommit</text>
</g>
<!-- struct1 -->
<g id="node4" class="node">
<title>struct1</title>
<polygon fill="none" stroke="#000000" points="24,-24.4 24,-247.6 226.585,-247.6 226.585,-24.4 24,-24.4"/>
<text text-anchor="middle" x="125.2925" y="-231" font-family="Times,serif" font-size="14.00" fill="#000000">height</text>
<polyline fill="none" stroke="#000000" points="24,-222.8 226.585,-222.8 "/>
<text text-anchor="middle" x="125.2925" y="-206.2" font-family="Times,serif" font-size="14.00" fill="#000000">timestamp</text>
<polyline fill="none" stroke="#000000" points="24,-198 226.585,-198 "/>
<text text-anchor="middle" x="125.2925" y="-181.4" font-family="Times,serif" font-size="14.00" fill="#000000">lastBlockID</text>
<polyline fill="none" stroke="#000000" points="24,-173.2 226.585,-173.2 "/>
<text text-anchor="middle" x="125.2925" y="-156.6" font-family="Times,serif" font-size="14.00" fill="#000000">lastCommitHash</text>
<polyline fill="none" stroke="#000000" points="24,-148.4 226.585,-148.4 "/>
<text text-anchor="middle" x="125.2925" y="-131.8" font-family="Times,serif" font-size="14.00" fill="#000000">consensusRoot</text>
<polyline fill="none" stroke="#000000" points="24,-123.6 226.585,-123.6 "/>
<text text-anchor="middle" x="125.2925" y="-107" font-family="Times,serif" font-size="14.00" fill="#000000">stateCommitment</text>
<polyline fill="none" stroke="#000000" points="24,-98.8 226.585,-98.8 "/>
<text text-anchor="middle" x="125.2925" y="-82.2" font-family="Times,serif" font-size="14.00" fill="#000000">availableDataOriginalSquareSize</text>
<polyline fill="none" stroke="#000000" points="24,-74 226.585,-74 "/>
<text text-anchor="middle" x="125.2925" y="-57.4" font-family="Times,serif" font-size="14.00" fill="#000000">availableDataRoot</text>
<polyline fill="none" stroke="#000000" points="24,-49.2 226.585,-49.2 "/>
<text text-anchor="middle" x="125.2925" y="-32.6" font-family="Times,serif" font-size="14.00" fill="#000000">proposerAddress</text>
</g>
<!-- struct1&#45;&gt;struct4 -->
<g id="edge2" class="edge">
<title>struct1:f7&#45;&gt;struct4</title>
<path fill="none" stroke="#000000" d="M226.2925,-62C247.3833,-62 269.9944,-62.8607 291.4184,-64.0771"/>
<polygon fill="#000000" stroke="#000000" points="291.306,-67.5766 301.4971,-64.6798 291.7239,-60.5891 291.306,-67.5766"/>
</g>
<!-- struct1&#45;&gt;struct4 -->
<!-- struct1&#45;&gt;struct3 -->
<!-- struct1&#45;&gt;struct2 -->
<g id="edge1" class="edge">
<title>struct1:f3&#45;&gt;struct2</title>
<path fill="none" stroke="#000000" d="M226.2925,-161C263.2404,-161 304.8711,-163.3791 336.6024,-165.6909"/>
<polygon fill="#000000" stroke="#000000" points="336.7288,-169.2102 346.9628,-166.4688 337.253,-162.2298 336.7288,-169.2102"/>
</g>
</g>
</svg>
