<?xml version="1.0" encoding="UTF-8" standalone="no"?>
<!DOCTYPE svg PUBLIC "-//W3C//DTD SVG 1.1//EN"
 "http://www.w3.org/Graphics/SVG/1.1/DTD/svg11.dtd">
<!-- Generated by graphviz version 2.40.1 (20161225.0304)
 -->
<!-- Title: G Pages: 1 -->
<svg width="592pt" height="380pt"
 viewBox="0.00 0.00 592.08 380.00" xmlns="http://www.w3.org/2000/svg" xmlns:xlink="http://www.w3.org/1999/xlink">
<g id="graph0" class="graph" transform="scale(1 1) rotate(0) translate(4 376)">
<title>G</title>
<polygon fill="#ffffff" stroke="transparent" points="-4,4 -4,-376 588.078,-376 588.078,4 -4,4"/>
<g id="clust1" class="cluster">
<title>cluster_block</title>
<polygon fill="none" stroke="#000000" points="8,-8 8,-364 576.078,-364 576.078,-8 8,-8"/>
<text text-anchor="middle" x="292.039" y="-347.4" font-family="Times,serif" font-size="14.00" fill="#000000">block</text>
</g>
<g id="clust2" class="cluster">
<title>cluster_lastcommit</title>
<polygon fill="none" stroke="#000000" points="223.1235,-74 223.1235,-152 320.4629,-152 320.4629,-74 223.1235,-74"/>
<text text-anchor="middle" x="271.7932" y="-135.4" font-family="Times,serif" font-size="14.00" fill="#000000">lastCommit</text>
</g>
<g id="clust3" class="cluster">
<title>cluster_body</title>
<polygon fill="none" stroke="#000000" points="385.9412,-122 385.9412,-263 568.078,-263 568.078,-122 385.9412,-122"/>
<text text-anchor="middle" x="477.0096" y="-246.4" font-family="Times,serif" font-size="14.00" fill="#000000">availableData</text>
</g>
<g id="clust4" class="cluster">
<title>cluster_availableheader</title>
<polygon fill="none" stroke="#000000" points="177.6452,-172 177.6452,-250 365.9412,-250 365.9412,-172 177.6452,-172"/>
<text text-anchor="middle" x="271.7932" y="-233.4" font-family="Times,serif" font-size="14.00" fill="#000000">availableDataHeader</text>
</g>
<g id="clust5" class="cluster">
<title>cluster_header</title>
<polygon fill="none" stroke="#000000" points="16,-16 16,-331 157.6452,-331 157.6452,-16 16,-16"/>
<text text-anchor="middle" x="86.8226" y="-314.4" font-family="Times,serif" font-size="14.00" fill="#000000">header</text>
</g>
<!-- struct4 -->
<g id="node1" class="node">
<title>struct4</title>
<polygon fill="none" stroke="#000000" points="231.1235,-83 231.1235,-119 312.4629,-119 312.4629,-83 231.1235,-83"/>
<text text-anchor="middle" x="271.7932" y="-96.9" font-family="Times,serif" font-size="14.00" fill="#000000">lastCommit</text>
</g>
<!-- struct3 -->
<g id="node2" class="node">
<title>struct3</title>
<polygon fill="none" stroke="#000000" points="393.9412,-130.4 393.9412,-229.6 560.078,-229.6 560.078,-130.4 393.9412,-130.4"/>
<text text-anchor="middle" x="403.6912" y="-175.8" font-family="Times,serif" font-size="14.00" fill="#000000"> </text>
<polyline fill="none" stroke="#000000" points="413.4412,-130.4 413.4412,-229.6 "/>
<text text-anchor="middle" x="486.7596" y="-213" font-family="Times,serif" font-size="14.00" fill="#000000">transactionData</text>
<polyline fill="none" stroke="#000000" points="413.4412,-204.8 560.078,-204.8 "/>
<text text-anchor="middle" x="486.7596" y="-188.2" font-family="Times,serif" font-size="14.00" fill="#000000">intermediateStateRoots</text>
<polyline fill="none" stroke="#000000" points="413.4412,-180 560.078,-180 "/>
<text text-anchor="middle" x="486.7596" y="-163.4" font-family="Times,serif" font-size="14.00" fill="#000000">evidenceData</text>
<polyline fill="none" stroke="#000000" points="413.4412,-155.2 560.078,-155.2 "/>
<text text-anchor="middle" x="486.7596" y="-138.6" font-family="Times,serif" font-size="14.00" fill="#000000">messageData</text>
</g>
<!-- struct2 -->
<g id="node3" class="node">
<title>struct2</title>
<polygon fill="none" stroke="#000000" points="185.6452,-181 185.6452,-217 357.9412,-217 357.9412,-181 185.6452,-181"/>
<text text-anchor="middle" x="271.7932" y="-194.9" font-family="Times,serif" font-size="14.00" fill="#000000">availableDataCommitments</text>
</g>
<!-- struct2&#45;&gt;struct3 -->
<g id="edge2" class="edge">
<title>struct2:f0&#45;&gt;struct3</title>
<path fill="none" stroke="#000000" d="M358.2287,-190.9974C366.5614,-190.2259 375.04,-189.4409 383.4373,-188.6634"/>
<polygon fill="#000000" stroke="#000000" points="383.9899,-192.1273 393.6246,-187.7202 383.3445,-185.1571 383.9899,-192.1273"/>
</g>
<!-- struct1 -->
<g id="node4" class="node">
<title>struct1</title>
<polygon fill="none" stroke="#000000" points="24,-24.6 24,-297.4 149.6452,-297.4 149.6452,-24.6 24,-24.6"/>
<text text-anchor="middle" x="86.8226" y="-280.8" font-family="Times,serif" font-size="14.00" fill="#000000">version</text>
<polyline fill="none" stroke="#000000" points="24,-272.6 149.6452,-272.6 "/>
<text text-anchor="middle" x="86.8226" y="-256" font-family="Times,serif" font-size="14.00" fill="#000000">chainID</text>
<polyline fill="none" stroke="#000000" points="24,-247.8 149.6452,-247.8 "/>
<text text-anchor="middle" x="86.8226" y="-231.2" font-family="Times,serif" font-size="14.00" fill="#000000">height</text>
<polyline fill="none" stroke="#000000" points="24,-223 149.6452,-223 "/>
<text text-anchor="middle" x="86.8226" y="-206.4" font-family="Times,serif" font-size="14.00" fill="#000000">time</text>
<polyline fill="none" stroke="#000000" points="24,-198.2 149.6452,-198.2 "/>
<text text-anchor="middle" x="86.8226" y="-181.6" font-family="Times,serif" font-size="14.00" fill="#000000">lastBlockID</text>
<polyline fill="none" stroke="#000000" points="24,-173.4 149.6452,-173.4 "/>
<text text-anchor="middle" x="86.8226" y="-156.8" font-family="Times,serif" font-size="14.00" fill="#000000">lastCommitRoot</text>
<polyline fill="none" stroke="#000000" points="24,-148.6 149.6452,-148.6 "/>
<text text-anchor="middle" x="86.8226" y="-132" font-family="Times,serif" font-size="14.00" fill="#000000">validatorsRoot</text>
<polyline fill="none" stroke="#000000" points="24,-123.8 149.6452,-123.8 "/>
<text text-anchor="middle" x="86.8226" y="-107.2" font-family="Times,serif" font-size="14.00" fill="#000000">nextValidatorsRoot</text>
<polyline fill="none" stroke="#000000" points="24,-99 149.6452,-99 "/>
<text text-anchor="middle" x="86.8226" y="-82.4" font-family="Times,serif" font-size="14.00" fill="#000000">consensusHash</text>
<polyline fill="none" stroke="#000000" points="24,-74.2 149.6452,-74.2 "/>
<text text-anchor="middle" x="86.8226" y="-57.6" font-family="Times,serif" font-size="14.00" fill="#000000">availableDataRoot</text>
<polyline fill="none" stroke="#000000" points="24,-49.4 149.6452,-49.4 "/>
<text text-anchor="middle" x="86.8226" y="-32.8" font-family="Times,serif" font-size="14.00" fill="#000000">proposerAddress</text>
</g>
<!-- struct1&#45;&gt;struct4 -->
<!-- struct1&#45;&gt;struct3 -->
<!-- struct1&#45;&gt;struct2 -->
<g id="edge1" class="edge">
<title>struct1:f9&#45;&gt;struct2</title>
<path fill="none" stroke="#000000" d="M149.8226,-62C197.6703,-62 145.1168,-130.9101 177.6452,-166 180.9311,-169.5447 184.6194,-172.7087 188.5832,-175.5329"/>
<polygon fill="#000000" stroke="#000000" points="186.7372,-178.5065 197.0661,-180.8658 190.4629,-172.5803 186.7372,-178.5065"/>
</g>
</g>
</svg>
