<?xml version="1.0" encoding="UTF-8" standalone="no"?>
<!DOCTYPE svg PUBLIC "-//W3C//DTD SVG 1.1//EN"
 "http://www.w3.org/Graphics/SVG/1.1/DTD/svg11.dtd">
<!-- Generated by graphviz version 2.40.1 (20161225.0304)
 -->
<!-- Title: G Pages: 1 -->
<svg width="587pt" height="355pt"
 viewBox="0.00 0.00 586.62 355.00" xmlns="http://www.w3.org/2000/svg" xmlns:xlink="http://www.w3.org/1999/xlink">
<g id="graph0" class="graph" transform="scale(1 1) rotate(0) translate(4 351)">
<title>G</title>
<polygon fill="#ffffff" stroke="transparent" points="-4,4 -4,-351 582.6166,-351 582.6166,4 -4,4"/>
<g id="clust1" class="cluster">
<title>cluster_block</title>
<polygon fill="none" stroke="#000000" points="8,-8 8,-339 570.6166,-339 570.6166,-8 8,-8"/>
<text text-anchor="middle" x="289.3083" y="-322.4" font-family="Times,serif" font-size="14.00" fill="#000000">block</text>
</g>
<g id="clust2" class="cluster">
<title>cluster_lastcommit</title>
<polygon fill="none" stroke="#000000" points="217.6621,-62 217.6621,-140 315.0015,-140 315.0015,-62 217.6621,-62"/>
<text text-anchor="middle" x="266.3318" y="-123.4" font-family="Times,serif" font-size="14.00" fill="#000000">lastCommit</text>
</g>
<g id="clust3" class="cluster">
<title>cluster_body</title>
<polygon fill="none" stroke="#000000" points="380.4798,-110 380.4798,-251 562.6166,-251 562.6166,-110 380.4798,-110"/>
<text text-anchor="middle" x="471.5482" y="-234.4" font-family="Times,serif" font-size="14.00" fill="#000000">availableData</text>
</g>
<g id="clust4" class="cluster">
<title>cluster_availableheader</title>
<polygon fill="none" stroke="#000000" points="172.1838,-160 172.1838,-238 360.4798,-238 360.4798,-160 172.1838,-160"/>
<text text-anchor="middle" x="266.3318" y="-221.4" font-family="Times,serif" font-size="14.00" fill="#000000">availableDataHeader</text>
</g>
<g id="clust5" class="cluster">
<title>cluster_header</title>
<polygon fill="none" stroke="#000000" points="16,-16 16,-306 152.1838,-306 152.1838,-16 16,-16"/>
<text text-anchor="middle" x="84.0919" y="-289.4" font-family="Times,serif" font-size="14.00" fill="#000000">header</text>
</g>
<!-- struct4 -->
<g id="node1" class="node">
<title>struct4</title>
<polygon fill="none" stroke="#000000" points="225.6621,-71 225.6621,-107 307.0015,-107 307.0015,-71 225.6621,-71"/>
<text text-anchor="middle" x="266.3318" y="-84.9" font-family="Times,serif" font-size="14.00" fill="#000000">lastCommit</text>
</g>
<!-- struct3 -->
<g id="node2" class="node">
<title>struct3</title>
<polygon fill="none" stroke="#000000" points="388.4798,-118.4 388.4798,-217.6 554.6166,-217.6 554.6166,-118.4 388.4798,-118.4"/>
<text text-anchor="middle" x="398.2298" y="-163.8" font-family="Times,serif" font-size="14.00" fill="#000000"> </text>
<polyline fill="none" stroke="#000000" points="407.9798,-118.4 407.9798,-217.6 "/>
<text text-anchor="middle" x="481.2982" y="-201" font-family="Times,serif" font-size="14.00" fill="#000000">transactionData</text>
<polyline fill="none" stroke="#000000" points="407.9798,-192.8 554.6166,-192.8 "/>
<text text-anchor="middle" x="481.2982" y="-176.2" font-family="Times,serif" font-size="14.00" fill="#000000">intermediateStateRoots</text>
<polyline fill="none" stroke="#000000" points="407.9798,-168 554.6166,-168 "/>
<text text-anchor="middle" x="481.2982" y="-151.4" font-family="Times,serif" font-size="14.00" fill="#000000">evidenceData</text>
<polyline fill="none" stroke="#000000" points="407.9798,-143.2 554.6166,-143.2 "/>
<text text-anchor="middle" x="481.2982" y="-126.6" font-family="Times,serif" font-size="14.00" fill="#000000">messageData</text>
</g>
<!-- struct2 -->
<g id="node3" class="node">
<title>struct2</title>
<polygon fill="none" stroke="#000000" points="180.1838,-169 180.1838,-205 352.4798,-205 352.4798,-169 180.1838,-169"/>
<text text-anchor="middle" x="266.3318" y="-182.9" font-family="Times,serif" font-size="14.00" fill="#000000">availableDataCommitments</text>
</g>
<!-- struct2&#45;&gt;struct3 -->
<g id="edge2" class="edge">
<title>struct2:f0&#45;&gt;struct3</title>
<path fill="none" stroke="#000000" d="M352.7673,-178.9974C361.1,-178.2259 369.5786,-177.4409 377.9759,-176.6634"/>
<polygon fill="#000000" stroke="#000000" points="378.5285,-180.1273 388.1632,-175.7202 377.8831,-173.1571 378.5285,-180.1273"/>
</g>
<!-- struct1 -->
<g id="node4" class="node">
<title>struct1</title>
<polygon fill="none" stroke="#000000" points="24,-25 24,-273 144.1838,-273 144.1838,-25 24,-25"/>
<text text-anchor="middle" x="84.0919" y="-256.4" font-family="Times,serif" font-size="14.00" fill="#000000">version</text>
<polyline fill="none" stroke="#000000" points="24,-248.2 144.1838,-248.2 "/>
<text text-anchor="middle" x="84.0919" y="-231.6" font-family="Times,serif" font-size="14.00" fill="#000000">chainID</text>
<polyline fill="none" stroke="#000000" points="24,-223.4 144.1838,-223.4 "/>
<text text-anchor="middle" x="84.0919" y="-206.8" font-family="Times,serif" font-size="14.00" fill="#000000">height</text>
<polyline fill="none" stroke="#000000" points="24,-198.6 144.1838,-198.6 "/>
<text text-anchor="middle" x="84.0919" y="-182" font-family="Times,serif" font-size="14.00" fill="#000000">time</text>
<polyline fill="none" stroke="#000000" points="24,-173.8 144.1838,-173.8 "/>
<text text-anchor="middle" x="84.0919" y="-157.2" font-family="Times,serif" font-size="14.00" fill="#000000">lastBlockID</text>
<polyline fill="none" stroke="#000000" points="24,-149 144.1838,-149 "/>
<text text-anchor="middle" x="84.0919" y="-132.4" font-family="Times,serif" font-size="14.00" fill="#000000">lastCommitRoot</text>
<polyline fill="none" stroke="#000000" points="24,-124.2 144.1838,-124.2 "/>
<text text-anchor="middle" x="84.0919" y="-107.6" font-family="Times,serif" font-size="14.00" fill="#000000">consensusHash</text>
<polyline fill="none" stroke="#000000" points="24,-99.4 144.1838,-99.4 "/>
<text text-anchor="middle" x="84.0919" y="-82.8" font-family="Times,serif" font-size="14.00" fill="#000000">stateCommitment</text>
<polyline fill="none" stroke="#000000" points="24,-74.6 144.1838,-74.6 "/>
<text text-anchor="middle" x="84.0919" y="-58" font-family="Times,serif" font-size="14.00" fill="#000000">availableDataRoot</text>
<polyline fill="none" stroke="#000000" points="24,-49.8 144.1838,-49.8 "/>
<text text-anchor="middle" x="84.0919" y="-33.2" font-family="Times,serif" font-size="14.00" fill="#000000">proposerAddress</text>
</g>
<!-- struct1&#45;&gt;struct4 -->
<!-- struct1&#45;&gt;struct3 -->
<!-- struct1&#45;&gt;struct2 -->
<g id="edge1" class="edge">
<title>struct1:f8&#45;&gt;struct2</title>
<path fill="none" stroke="#000000" d="M144.0919,-62C186.8445,-62 142.5757,-123.1593 172.1838,-154 175.6024,-157.5609 179.4266,-160.7379 183.5239,-163.5724"/>
<polygon fill="#000000" stroke="#000000" points="181.9175,-166.6926 192.275,-168.9228 185.5689,-160.7204 181.9175,-166.6926"/>
</g>
</g>
</svg>
