<?xml version="1.0" encoding="UTF-8" standalone="no"?>
<!DOCTYPE svg PUBLIC "-//W3C//DTD SVG 1.1//EN"
 "http://www.w3.org/Graphics/SVG/1.1/DTD/svg11.dtd">
<!-- Generated by graphviz version 2.40.1 (20161225.0304)
 -->
<!-- Title: G Pages: 1 -->
<svg width="891pt" height="330pt"
 viewBox="0.00 0.00 890.62 330.00" xmlns="http://www.w3.org/2000/svg" xmlns:xlink="http://www.w3.org/1999/xlink">
<g id="graph0" class="graph" transform="scale(1 1) rotate(0) translate(4 326)">
<title>G</title>
<polygon fill="#ffffff" stroke="transparent" points="-4,4 -4,-326 886.6168,-326 886.6168,4 -4,4"/>
<g id="clust1" class="cluster">
<title>cluster_block</title>
<polygon fill="none" stroke="#000000" points="8,-8 8,-314 874.6168,-314 874.6168,-8 8,-8"/>
<text text-anchor="middle" x="441.3084" y="-297.4" font-family="Times,serif" font-size="14.00" fill="#000000">block</text>
</g>
<g id="clust2" class="cluster">
<title>cluster_availableheader</title>
<polygon fill="none" stroke="#000000" points="381.2218,-33 381.2218,-124 514.1608,-124 514.1608,-33 381.2218,-33"/>
<text text-anchor="middle" x="447.6913" y="-107.4" font-family="Times,serif" font-size="14.00" fill="#000000">availableDataHeader</text>
</g>
<g id="clust3" class="cluster">
<title>cluster_body</title>
<polygon fill="none" stroke="#000000" points="684.48,-46 684.48,-187 866.6168,-187 866.6168,-46 684.48,-46"/>
<text text-anchor="middle" x="775.5484" y="-170.4" font-family="Times,serif" font-size="14.00" fill="#000000">availableData</text>
</g>
<g id="clust4" class="cluster">
<title>cluster_lastcommit</title>
<polygon fill="none" stroke="#000000" points="398.5216,-144 398.5216,-222 495.861,-222 495.861,-144 398.5216,-144"/>
<text text-anchor="middle" x="447.1913" y="-205.4" font-family="Times,serif" font-size="14.00" fill="#000000">lastCommit</text>
</g>
<g id="clust5" class="cluster">
<title>cluster_header</title>
<polygon fill="none" stroke="#000000" points="16,-16 16,-281 234.585,-281 234.585,-16 16,-16"/>
<text text-anchor="middle" x="125.2925" y="-264.4" font-family="Times,serif" font-size="14.00" fill="#000000">header</text>
</g>
<!-- struct4 -->
<g id="node1" class="node">
<title>struct4</title>
<polygon fill="none" stroke="#000000" points="402.2218,-41.2 402.2218,-90.8 492.1608,-90.8 492.1608,-41.2 402.2218,-41.2"/>
<text text-anchor="middle" x="411.9718" y="-61.8" font-family="Times,serif" font-size="14.00" fill="#000000"> </text>
<polyline fill="none" stroke="#000000" points="421.7218,-41.2 421.7218,-90.8 "/>
<text text-anchor="middle" x="456.9413" y="-74.2" font-family="Times,serif" font-size="14.00" fill="#000000">rowRoots</text>
<polyline fill="none" stroke="#000000" points="421.7218,-66 492.1608,-66 "/>
<text text-anchor="middle" x="456.9413" y="-49.4" font-family="Times,serif" font-size="14.00" fill="#000000">colRoots</text>
</g>
<!-- struct3 -->
<g id="node2" class="node">
<title>struct3</title>
<polygon fill="none" stroke="#000000" points="692.48,-54.4 692.48,-153.6 858.6168,-153.6 858.6168,-54.4 692.48,-54.4"/>
<text text-anchor="middle" x="702.23" y="-99.8" font-family="Times,serif" font-size="14.00" fill="#000000"> </text>
<polyline fill="none" stroke="#000000" points="711.98,-54.4 711.98,-153.6 "/>
<text text-anchor="middle" x="785.2984" y="-137" font-family="Times,serif" font-size="14.00" fill="#000000">transactionData</text>
<polyline fill="none" stroke="#000000" points="711.98,-128.8 858.6168,-128.8 "/>
<text text-anchor="middle" x="785.2984" y="-112.2" font-family="Times,serif" font-size="14.00" fill="#000000">intermediateStateRoots</text>
<polyline fill="none" stroke="#000000" points="711.98,-104 858.6168,-104 "/>
<text text-anchor="middle" x="785.2984" y="-87.4" font-family="Times,serif" font-size="14.00" fill="#000000">evidenceData</text>
<polyline fill="none" stroke="#000000" points="711.98,-79.2 858.6168,-79.2 "/>
<text text-anchor="middle" x="785.2984" y="-62.6" font-family="Times,serif" font-size="14.00" fill="#000000">messageData</text>
</g>
<!-- struct4&#45;&gt;struct3 -->
<g id="edge3" class="edge">
<title>struct4:f0&#45;&gt;struct3</title>
<path fill="none" stroke="#000000" d="M412.1913,-91C412.1913,-94.3793 652.1044,-94.2416 655.48,-94.4 664.1309,-94.8058 673.1251,-95.3316 682.1251,-95.9279"/>
<polygon fill="#000000" stroke="#000000" points="682.0535,-99.4312 692.2709,-96.6284 682.5358,-92.4478 682.0535,-99.4312"/>
<text text-anchor="middle" x="602.8204" y="-115" font-family="Times,serif" font-size="14.00" fill="#000000">NMT roots to</text>
<text text-anchor="middle" x="602.8204" y="-98.2" font-family="Times,serif" font-size="14.00" fill="#000000">erasure&#45;coded data</text>
</g>
<!-- struct2 -->
<g id="node3" class="node">
<title>struct2</title>
<polygon fill="none" stroke="#000000" points="406.5216,-153 406.5216,-189 487.861,-189 487.861,-153 406.5216,-153"/>
<text text-anchor="middle" x="447.1913" y="-166.9" font-family="Times,serif" font-size="14.00" fill="#000000">lastCommit</text>
</g>
<!-- struct1 -->
<g id="node4" class="node">
<title>struct1</title>
<polygon fill="none" stroke="#000000" points="24,-24.4 24,-247.6 226.585,-247.6 226.585,-24.4 24,-24.4"/>
<text text-anchor="middle" x="125.2925" y="-231" font-family="Times,serif" font-size="14.00" fill="#000000">height</text>
<polyline fill="none" stroke="#000000" points="24,-222.8 226.585,-222.8 "/>
<text text-anchor="middle" x="125.2925" y="-206.2" font-family="Times,serif" font-size="14.00" fill="#000000">timestamp</text>
<polyline fill="none" stroke="#000000" points="24,-198 226.585,-198 "/>
<text text-anchor="middle" x="125.2925" y="-181.4" font-family="Times,serif" font-size="14.00" fill="#000000">lastBlockID</text>
<polyline fill="none" stroke="#000000" points="24,-173.2 226.585,-173.2 "/>
<text text-anchor="middle" x="125.2925" y="-156.6" font-family="Times,serif" font-size="14.00" fill="#000000">lastCommitRoot</text>
<polyline fill="none" stroke="#000000" points="24,-148.4 226.585,-148.4 "/>
<text text-anchor="middle" x="125.2925" y="-131.8" font-family="Times,serif" font-size="14.00" fill="#000000">consensusRoot</text>
<polyline fill="none" stroke="#000000" points="24,-123.6 226.585,-123.6 "/>
<text text-anchor="middle" x="125.2925" y="-107" font-family="Times,serif" font-size="14.00" fill="#000000">stateCommitment</text>
<polyline fill="none" stroke="#000000" points="24,-98.8 226.585,-98.8 "/>
<text text-anchor="middle" x="125.2925" y="-82.2" font-family="Times,serif" font-size="14.00" fill="#000000">availableDataOriginalSquareSize</text>
<polyline fill="none" stroke="#000000" points="24,-74 226.585,-74 "/>
<text text-anchor="middle" x="125.2925" y="-57.4" font-family="Times,serif" font-size="14.00" fill="#000000">availableDataRoot</text>
<polyline fill="none" stroke="#000000" points="24,-49.2 226.585,-49.2 "/>
<text text-anchor="middle" x="125.2925" y="-32.6" font-family="Times,serif" font-size="14.00" fill="#000000">proposerAddress</text>
</g>
<!-- struct1&#45;&gt;struct4 -->
<g id="edge2" class="edge">
<title>struct1:f7&#45;&gt;struct4</title>
<path fill="none" stroke="#000000" d="M226.2925,-62C282.6946,-62 347.184,-63.3197 391.8611,-64.4431"/>
<polygon fill="#000000" stroke="#000000" points="391.8412,-67.9436 401.9277,-64.7013 392.0207,-60.9459 391.8412,-67.9436"/>
<text text-anchor="middle" x="304.4034" y="-67.2" font-family="Times,serif" font-size="14.00" fill="#000000">Merkle root of</text>
</g>
<!-- struct1&#45;&gt;struct4 -->
<!-- struct1&#45;&gt;struct3 -->
<!-- struct1&#45;&gt;struct2 -->
<g id="edge1" class="edge">
<title>struct1:f3&#45;&gt;struct2</title>
<path fill="none" stroke="#000000" d="M226.2925,-161C284.7019,-161 351.7101,-164.5323 396.4641,-167.3982"/>
<polygon fill="#000000" stroke="#000000" points="396.2959,-170.8945 406.5028,-168.0538 396.7521,-163.9094 396.2959,-170.8945"/>
</g>
</g>
</svg>
