<?xml version="1.0" encoding="UTF-8" standalone="no"?>
<!DOCTYPE svg PUBLIC "-//W3C//DTD SVG 1.1//EN"
 "http://www.w3.org/Graphics/SVG/1.1/DTD/svg11.dtd">
<!-- Generated by graphviz version 2.40.1 (20161225.0304)
 -->
<!-- Title: G Pages: 1 -->
<svg width="411pt" height="404pt"
 viewBox="0.00 0.00 411.34 404.00" xmlns="http://www.w3.org/2000/svg" xmlns:xlink="http://www.w3.org/1999/xlink">
<g id="graph0" class="graph" transform="scale(1 1) rotate(0) translate(4 400)">
<title>G</title>
<polygon fill="#ffffff" stroke="transparent" points="-4,4 -4,-400 407.3424,-400 407.3424,4 -4,4"/>
<g id="clust1" class="cluster">
<title>cluster_block</title>
<polygon fill="none" stroke="#000000" points="8,-8 8,-388 395.3424,-388 395.3424,-8 8,-8"/>
<text text-anchor="middle" x="201.6712" y="-371.4" font-family="Times,serif" font-size="14.00" fill="#000000">block</text>
</g>
<g id="clust2" class="cluster">
<title>cluster_lastcommit</title>
<polygon fill="none" stroke="#000000" points="233.8241,-60 233.8241,-138 331.1635,-138 331.1635,-60 233.8241,-60"/>
<text text-anchor="middle" x="282.4938" y="-121.4" font-family="Times,serif" font-size="14.00" fill="#000000">lastCommit</text>
</g>
<g id="clust3" class="cluster">
<title>cluster_evidence</title>
<polygon fill="none" stroke="#000000" points="241.6193,-146 241.6193,-224 323.3683,-224 323.3683,-146 241.6193,-146"/>
<text text-anchor="middle" x="282.4938" y="-207.4" font-family="Times,serif" font-size="14.00" fill="#000000">evidence</text>
</g>
<g id="clust4" class="cluster">
<title>cluster_body</title>
<polygon fill="none" stroke="#000000" points="177.6452,-232 177.6452,-310 387.3424,-310 387.3424,-232 177.6452,-232"/>
<text text-anchor="middle" x="282.4938" y="-293.4" font-family="Times,serif" font-size="14.00" fill="#000000">availableData</text>
</g>
<g id="clust5" class="cluster">
<title>cluster_header</title>
<polygon fill="none" stroke="#000000" points="16,-16 16,-355 157.6452,-355 157.6452,-16 16,-16"/>
<text text-anchor="middle" x="86.8226" y="-338.4" font-family="Times,serif" font-size="14.00" fill="#000000">header</text>
</g>
<!-- struct4 -->
<g id="node1" class="node">
<title>struct4</title>
<polygon fill="none" stroke="#000000" points="241.8241,-69 241.8241,-105 323.1635,-105 323.1635,-69 241.8241,-69"/>
<text text-anchor="middle" x="282.4938" y="-82.9" font-family="Times,serif" font-size="14.00" fill="#000000">lastCommit</text>
</g>
<!-- struct3 -->
<g id="node2" class="node">
<title>struct3</title>
<polygon fill="none" stroke="#000000" points="249.6193,-155 249.6193,-191 315.3683,-191 315.3683,-155 249.6193,-155"/>
<text text-anchor="middle" x="282.4938" y="-168.9" font-family="Times,serif" font-size="14.00" fill="#000000">evidence</text>
</g>
<!-- struct2 -->
<g id="node3" class="node">
<title>struct2</title>
<polygon fill="none" stroke="#000000" points="185.6452,-241 185.6452,-277 379.3424,-277 379.3424,-241 185.6452,-241"/>
<text text-anchor="middle" x="237.5688" y="-254.9" font-family="Times,serif" font-size="14.00" fill="#000000">transactionData</text>
<polyline fill="none" stroke="#000000" points="289.4924,-241.2 289.4924,-277 "/>
<text text-anchor="middle" x="334.4174" y="-254.9" font-family="Times,serif" font-size="14.00" fill="#000000">messageData</text>
</g>
<!-- struct1 -->
<g id="node4" class="node">
<title>struct1</title>
<polygon fill="none" stroke="#000000" points="24,-24.2 24,-321.8 149.6452,-321.8 149.6452,-24.2 24,-24.2"/>
<text text-anchor="middle" x="86.8226" y="-305.2" font-family="Times,serif" font-size="14.00" fill="#000000">version</text>
<polyline fill="none" stroke="#000000" points="24,-297 149.6452,-297 "/>
<text text-anchor="middle" x="86.8226" y="-280.4" font-family="Times,serif" font-size="14.00" fill="#000000">chainID</text>
<polyline fill="none" stroke="#000000" points="24,-272.2 149.6452,-272.2 "/>
<text text-anchor="middle" x="86.8226" y="-255.6" font-family="Times,serif" font-size="14.00" fill="#000000">height</text>
<polyline fill="none" stroke="#000000" points="24,-247.4 149.6452,-247.4 "/>
<text text-anchor="middle" x="86.8226" y="-230.8" font-family="Times,serif" font-size="14.00" fill="#000000">time</text>
<polyline fill="none" stroke="#000000" points="24,-222.6 149.6452,-222.6 "/>
<text text-anchor="middle" x="86.8226" y="-206" font-family="Times,serif" font-size="14.00" fill="#000000">lastBlockID</text>
<polyline fill="none" stroke="#000000" points="24,-197.8 149.6452,-197.8 "/>
<text text-anchor="middle" x="86.8226" y="-181.2" font-family="Times,serif" font-size="14.00" fill="#000000">lastCommitRoot</text>
<polyline fill="none" stroke="#000000" points="24,-173 149.6452,-173 "/>
<text text-anchor="middle" x="86.8226" y="-156.4" font-family="Times,serif" font-size="14.00" fill="#000000">validatorsRoot</text>
<polyline fill="none" stroke="#000000" points="24,-148.2 149.6452,-148.2 "/>
<text text-anchor="middle" x="86.8226" y="-131.6" font-family="Times,serif" font-size="14.00" fill="#000000">nextValidatorsRoot</text>
<polyline fill="none" stroke="#000000" points="24,-123.4 149.6452,-123.4 "/>
<text text-anchor="middle" x="86.8226" y="-106.8" font-family="Times,serif" font-size="14.00" fill="#000000">consensusHash</text>
<polyline fill="none" stroke="#000000" points="24,-98.6 149.6452,-98.6 "/>
<text text-anchor="middle" x="86.8226" y="-82" font-family="Times,serif" font-size="14.00" fill="#000000">evidenceRoot</text>
<polyline fill="none" stroke="#000000" points="24,-73.8 149.6452,-73.8 "/>
<text text-anchor="middle" x="86.8226" y="-57.2" font-family="Times,serif" font-size="14.00" fill="#000000">availableHeader</text>
<polyline fill="none" stroke="#000000" points="24,-49 149.6452,-49 "/>
<text text-anchor="middle" x="86.8226" y="-32.4" font-family="Times,serif" font-size="14.00" fill="#000000">proposerAddress</text>
</g>
<!-- struct1&#45;&gt;struct4 -->
<!-- struct1&#45;&gt;struct3 -->
<!-- struct1&#45;&gt;struct2 -->
<g id="edge1" class="edge">
<title>struct1:f10&#45;&gt;struct2</title>
<path fill="none" stroke="#000000" d="M149.8226,-61C187.4452,-61 152.7187,-199.8196 177.6452,-228 179.7085,-230.3326 181.9379,-232.4936 184.3038,-234.4953"/>
<polygon fill="#000000" stroke="#000000" points="182.6862,-237.6471 192.8299,-240.7057 186.8075,-231.9889 182.6862,-237.6471"/>
</g>
</g>
</svg>
