<?xml version="1.0" encoding="UTF-8" standalone="no"?>
<!DOCTYPE svg PUBLIC "-//W3C//DTD SVG 1.1//EN"
 "http://www.w3.org/Graphics/SVG/1.1/DTD/svg11.dtd">
<!-- Generated by graphviz version 2.40.1 (20161225.0304)
 -->
<!-- Title: G Pages: 1 -->
<svg width="789pt" height="306pt"
 viewBox="0.00 0.00 788.83 306.00" xmlns="http://www.w3.org/2000/svg" xmlns:xlink="http://www.w3.org/1999/xlink">
<g id="graph0" class="graph" transform="scale(1 1) rotate(0) translate(4 302)">
<title>G</title>
<polygon fill="#ffffff" stroke="transparent" points="-4,4 -4,-302 784.8284,-302 784.8284,4 -4,4"/>
<g id="clust1" class="cluster">
<title>cluster_block</title>
<polygon fill="none" stroke="#000000" points="8,-8 8,-290 772.8284,-290 772.8284,-8 8,-8"/>
<text text-anchor="middle" x="390.4142" y="-273.4" font-family="Times,serif" font-size="14.00" fill="#000000">block</text>
</g>
<g id="clust2" class="cluster">
<title>cluster_availableheader</title>
<polygon fill="none" stroke="#000000" points="211.1838,-36 211.1838,-114 399.4798,-114 399.4798,-36 211.1838,-36"/>
<text text-anchor="middle" x="305.3318" y="-97.4" font-family="Times,serif" font-size="14.00" fill="#000000">availableDataHeader</text>
</g>
<g id="clust3" class="cluster">
<title>cluster_body</title>
<polygon fill="none" stroke="#000000" points="582.6916,-41 582.6916,-182 764.8284,-182 764.8284,-41 582.6916,-41"/>
<text text-anchor="middle" x="673.76" y="-165.4" font-family="Times,serif" font-size="14.00" fill="#000000">availableData</text>
</g>
<g id="clust4" class="cluster">
<title>cluster_lastcommit</title>
<polygon fill="none" stroke="#000000" points="256.6621,-134 256.6621,-212 354.0015,-212 354.0015,-134 256.6621,-134"/>
<text text-anchor="middle" x="305.3318" y="-195.4" font-family="Times,serif" font-size="14.00" fill="#000000">lastCommit</text>
</g>
<g id="clust5" class="cluster">
<title>cluster_header</title>
<polygon fill="none" stroke="#000000" points="16,-16 16,-257 152.1838,-257 152.1838,-16 16,-16"/>
<text text-anchor="middle" x="84.0919" y="-240.4" font-family="Times,serif" font-size="14.00" fill="#000000">header</text>
</g>
<!-- struct4 -->
<g id="node1" class="node">
<title>struct4</title>
<polygon fill="none" stroke="#000000" points="219.1838,-45 219.1838,-81 391.4798,-81 391.4798,-45 219.1838,-45"/>
<text text-anchor="middle" x="305.3318" y="-58.9" font-family="Times,serif" font-size="14.00" fill="#000000">availableDataCommitments</text>
</g>
<!-- struct3 -->
<g id="node2" class="node">
<title>struct3</title>
<polygon fill="none" stroke="#000000" points="590.6916,-49.4 590.6916,-148.6 756.8284,-148.6 756.8284,-49.4 590.6916,-49.4"/>
<text text-anchor="middle" x="600.4416" y="-94.8" font-family="Times,serif" font-size="14.00" fill="#000000"> </text>
<polyline fill="none" stroke="#000000" points="610.1916,-49.4 610.1916,-148.6 "/>
<text text-anchor="middle" x="683.51" y="-132" font-family="Times,serif" font-size="14.00" fill="#000000">transactionData</text>
<polyline fill="none" stroke="#000000" points="610.1916,-123.8 756.8284,-123.8 "/>
<text text-anchor="middle" x="683.51" y="-107.2" font-family="Times,serif" font-size="14.00" fill="#000000">intermediateStateRoots</text>
<polyline fill="none" stroke="#000000" points="610.1916,-99 756.8284,-99 "/>
<text text-anchor="middle" x="683.51" y="-82.4" font-family="Times,serif" font-size="14.00" fill="#000000">evidenceData</text>
<polyline fill="none" stroke="#000000" points="610.1916,-74.2 756.8284,-74.2 "/>
<text text-anchor="middle" x="683.51" y="-57.6" font-family="Times,serif" font-size="14.00" fill="#000000">messageData</text>
</g>
<!-- struct4&#45;&gt;struct3 -->
<g id="edge3" class="edge">
<title>struct4:f0&#45;&gt;struct3</title>
<path fill="none" stroke="#000000" d="M391.6069,-69.6864C439.409,-73.579 499.8837,-78.8121 553.6916,-84.4 562.3415,-85.2983 571.3351,-86.288 580.3347,-87.3161"/>
<polygon fill="#000000" stroke="#000000" points="580.144,-90.8173 590.4801,-88.4903 580.9488,-83.8638 580.144,-90.8173"/>
<text text-anchor="middle" x="491.0857" y="-105" font-family="Times,serif" font-size="14.00" fill="#000000">NMT commitments to</text>
<text text-anchor="middle" x="491.0857" y="-88.2" font-family="Times,serif" font-size="14.00" fill="#000000">erasure&#45;coded data</text>
</g>
<!-- struct2 -->
<g id="node3" class="node">
<title>struct2</title>
<polygon fill="none" stroke="#000000" points="264.6621,-143 264.6621,-179 346.0015,-179 346.0015,-143 264.6621,-143"/>
<text text-anchor="middle" x="305.3318" y="-156.9" font-family="Times,serif" font-size="14.00" fill="#000000">lastCommit</text>
</g>
<!-- struct1 -->
<g id="node4" class="node">
<title>struct1</title>
<polygon fill="none" stroke="#000000" points="24,-24.8 24,-223.2 144.1838,-223.2 144.1838,-24.8 24,-24.8"/>
<text text-anchor="middle" x="84.0919" y="-206.6" font-family="Times,serif" font-size="14.00" fill="#000000">height</text>
<polyline fill="none" stroke="#000000" points="24,-198.4 144.1838,-198.4 "/>
<text text-anchor="middle" x="84.0919" y="-181.8" font-family="Times,serif" font-size="14.00" fill="#000000">timestamp</text>
<polyline fill="none" stroke="#000000" points="24,-173.6 144.1838,-173.6 "/>
<text text-anchor="middle" x="84.0919" y="-157" font-family="Times,serif" font-size="14.00" fill="#000000">lastBlockID</text>
<polyline fill="none" stroke="#000000" points="24,-148.8 144.1838,-148.8 "/>
<text text-anchor="middle" x="84.0919" y="-132.2" font-family="Times,serif" font-size="14.00" fill="#000000">lastCommitRoot</text>
<polyline fill="none" stroke="#000000" points="24,-124 144.1838,-124 "/>
<text text-anchor="middle" x="84.0919" y="-107.4" font-family="Times,serif" font-size="14.00" fill="#000000">consensusRoot</text>
<polyline fill="none" stroke="#000000" points="24,-99.2 144.1838,-99.2 "/>
<text text-anchor="middle" x="84.0919" y="-82.6" font-family="Times,serif" font-size="14.00" fill="#000000">stateCommitment</text>
<polyline fill="none" stroke="#000000" points="24,-74.4 144.1838,-74.4 "/>
<text text-anchor="middle" x="84.0919" y="-57.8" font-family="Times,serif" font-size="14.00" fill="#000000">availableDataRoot</text>
<polyline fill="none" stroke="#000000" points="24,-49.6 144.1838,-49.6 "/>
<text text-anchor="middle" x="84.0919" y="-33" font-family="Times,serif" font-size="14.00" fill="#000000">proposerAddress</text>
</g>
<!-- struct1&#45;&gt;struct4 -->
<g id="edge2" class="edge">
<title>struct1:f6&#45;&gt;struct4</title>
<path fill="none" stroke="#000000" d="M144.0919,-62C165.1166,-62 187.6831,-62.0861 209.0771,-62.2077"/>
<polygon fill="#000000" stroke="#000000" points="209.1218,-65.7079 219.1427,-62.268 209.1638,-58.7081 209.1218,-65.7079"/>
</g>
<!-- struct1&#45;&gt;struct4 -->
<!-- struct1&#45;&gt;struct3 -->
<!-- struct1&#45;&gt;struct2 -->
<g id="edge1" class="edge">
<title>struct1:f3&#45;&gt;struct2</title>
<path fill="none" stroke="#000000" d="M144.0919,-136C181.4112,-136 223.0216,-142.6208 254.6231,-149.048"/>
<polygon fill="#000000" stroke="#000000" points="254.0084,-152.4951 264.5136,-151.1193 255.4434,-145.6438 254.0084,-152.4951"/>
</g>
</g>
</svg>
