<?xml version="1.0" encoding="UTF-8" standalone="no"?>
<!DOCTYPE svg PUBLIC "-//W3C//DTD SVG 1.1//EN"
 "http://www.w3.org/Graphics/SVG/1.1/DTD/svg11.dtd">
<!-- Generated by graphviz version 2.40.1 (20161225.0304)
 -->
<!-- Title: G Pages: 1 -->
<svg width="620pt" height="404pt"
 viewBox="0.00 0.00 619.64 404.00" xmlns="http://www.w3.org/2000/svg" xmlns:xlink="http://www.w3.org/1999/xlink">
<g id="graph0" class="graph" transform="scale(1 1) rotate(0) translate(4 400)">
<title>G</title>
<polygon fill="#ffffff" stroke="transparent" points="-4,4 -4,-400 615.6384,-400 615.6384,4 -4,4"/>
<g id="clust1" class="cluster">
<title>cluster_block</title>
<polygon fill="none" stroke="#000000" points="8,-8 8,-388 603.6384,-388 603.6384,-8 8,-8"/>
<text text-anchor="middle" x="305.8192" y="-371.4" font-family="Times,serif" font-size="14.00" fill="#000000">block</text>
</g>
<g id="clust2" class="cluster">
<title>cluster_lastcommit</title>
<polygon fill="none" stroke="#000000" points="223.1235,-38 223.1235,-116 320.4629,-116 320.4629,-38 223.1235,-38"/>
<text text-anchor="middle" x="271.7932" y="-99.4" font-family="Times,serif" font-size="14.00" fill="#000000">lastCommit</text>
</g>
<g id="clust3" class="cluster">
<title>cluster_evidence</title>
<polygon fill="none" stroke="#000000" points="230.9187,-124 230.9187,-202 312.6677,-202 312.6677,-124 230.9187,-124"/>
<text text-anchor="middle" x="271.7932" y="-185.4" font-family="Times,serif" font-size="14.00" fill="#000000">evidence</text>
</g>
<g id="clust4" class="cluster">
<title>cluster_body</title>
<polygon fill="none" stroke="#000000" points="385.9412,-203 385.9412,-281 595.6384,-281 595.6384,-203 385.9412,-203"/>
<text text-anchor="middle" x="490.7898" y="-264.4" font-family="Times,serif" font-size="14.00" fill="#000000">availableData</text>
</g>
<g id="clust5" class="cluster">
<title>cluster_availableheader</title>
<polygon fill="none" stroke="#000000" points="177.6452,-222 177.6452,-300 365.9412,-300 365.9412,-222 177.6452,-222"/>
<text text-anchor="middle" x="271.7932" y="-283.4" font-family="Times,serif" font-size="14.00" fill="#000000">availableDataHeader</text>
</g>
<g id="clust6" class="cluster">
<title>cluster_header</title>
<polygon fill="none" stroke="#000000" points="16,-16 16,-355 157.6452,-355 157.6452,-16 16,-16"/>
<text text-anchor="middle" x="86.8226" y="-338.4" font-family="Times,serif" font-size="14.00" fill="#000000">header</text>
</g>
<!-- struct5 -->
<g id="node1" class="node">
<title>struct5</title>
<polygon fill="none" stroke="#000000" points="231.1235,-47 231.1235,-83 312.4629,-83 312.4629,-47 231.1235,-47"/>
<text text-anchor="middle" x="271.7932" y="-60.9" font-family="Times,serif" font-size="14.00" fill="#000000">lastCommit</text>
</g>
<!-- struct4 -->
<g id="node2" class="node">
<title>struct4</title>
<polygon fill="none" stroke="#000000" points="238.9187,-133 238.9187,-169 304.6677,-169 304.6677,-133 238.9187,-133"/>
<text text-anchor="middle" x="271.7932" y="-146.9" font-family="Times,serif" font-size="14.00" fill="#000000">evidence</text>
</g>
<!-- struct3 -->
<g id="node3" class="node">
<title>struct3</title>
<polygon fill="none" stroke="#000000" points="393.9412,-212 393.9412,-248 587.6384,-248 587.6384,-212 393.9412,-212"/>
<text text-anchor="middle" x="445.8648" y="-225.9" font-family="Times,serif" font-size="14.00" fill="#000000">transactionData</text>
<polyline fill="none" stroke="#000000" points="497.7884,-212.2 497.7884,-248 "/>
<text text-anchor="middle" x="542.7134" y="-225.9" font-family="Times,serif" font-size="14.00" fill="#000000">messageData</text>
</g>
<!-- struct2 -->
<g id="node4" class="node">
<title>struct2</title>
<polygon fill="none" stroke="#000000" points="185.6452,-231 185.6452,-267 357.9412,-267 357.9412,-231 185.6452,-231"/>
<text text-anchor="middle" x="271.7932" y="-244.9" font-family="Times,serif" font-size="14.00" fill="#000000">availableDataCommitments</text>
</g>
<!-- struct2&#45;&gt;struct3 -->
<g id="edge2" class="edge">
<title>struct2:f0&#45;&gt;struct3</title>
<path fill="none" stroke="#000000" d="M358.0321,-241.518C366.4631,-240.7865 375.0869,-240.0383 383.691,-239.2918"/>
<polygon fill="#000000" stroke="#000000" points="384.1096,-242.7687 393.7696,-238.4174 383.5045,-235.7949 384.1096,-242.7687"/>
</g>
<!-- struct1 -->
<g id="node5" class="node">
<title>struct1</title>
<polygon fill="none" stroke="#000000" points="24,-24.2 24,-321.8 149.6452,-321.8 149.6452,-24.2 24,-24.2"/>
<text text-anchor="middle" x="86.8226" y="-305.2" font-family="Times,serif" font-size="14.00" fill="#000000">version</text>
<polyline fill="none" stroke="#000000" points="24,-297 149.6452,-297 "/>
<text text-anchor="middle" x="86.8226" y="-280.4" font-family="Times,serif" font-size="14.00" fill="#000000">chainID</text>
<polyline fill="none" stroke="#000000" points="24,-272.2 149.6452,-272.2 "/>
<text text-anchor="middle" x="86.8226" y="-255.6" font-family="Times,serif" font-size="14.00" fill="#000000">height</text>
<polyline fill="none" stroke="#000000" points="24,-247.4 149.6452,-247.4 "/>
<text text-anchor="middle" x="86.8226" y="-230.8" font-family="Times,serif" font-size="14.00" fill="#000000">time</text>
<polyline fill="none" stroke="#000000" points="24,-222.6 149.6452,-222.6 "/>
<text text-anchor="middle" x="86.8226" y="-206" font-family="Times,serif" font-size="14.00" fill="#000000">lastBlockID</text>
<polyline fill="none" stroke="#000000" points="24,-197.8 149.6452,-197.8 "/>
<text text-anchor="middle" x="86.8226" y="-181.2" font-family="Times,serif" font-size="14.00" fill="#000000">lastCommitRoot</text>
<polyline fill="none" stroke="#000000" points="24,-173 149.6452,-173 "/>
<text text-anchor="middle" x="86.8226" y="-156.4" font-family="Times,serif" font-size="14.00" fill="#000000">validatorsRoot</text>
<polyline fill="none" stroke="#000000" points="24,-148.2 149.6452,-148.2 "/>
<text text-anchor="middle" x="86.8226" y="-131.6" font-family="Times,serif" font-size="14.00" fill="#000000">nextValidatorsRoot</text>
<polyline fill="none" stroke="#000000" points="24,-123.4 149.6452,-123.4 "/>
<text text-anchor="middle" x="86.8226" y="-106.8" font-family="Times,serif" font-size="14.00" fill="#000000">consensusHash</text>
<polyline fill="none" stroke="#000000" points="24,-98.6 149.6452,-98.6 "/>
<text text-anchor="middle" x="86.8226" y="-82" font-family="Times,serif" font-size="14.00" fill="#000000">evidenceRoot</text>
<polyline fill="none" stroke="#000000" points="24,-73.8 149.6452,-73.8 "/>
<text text-anchor="middle" x="86.8226" y="-57.2" font-family="Times,serif" font-size="14.00" fill="#000000">availableDataRoot</text>
<polyline fill="none" stroke="#000000" points="24,-49 149.6452,-49 "/>
<text text-anchor="middle" x="86.8226" y="-32.4" font-family="Times,serif" font-size="14.00" fill="#000000">proposerAddress</text>
</g>
<!-- struct1&#45;&gt;struct5 -->
<!-- struct1&#45;&gt;struct4 -->
<!-- struct1&#45;&gt;struct3 -->
<!-- struct1&#45;&gt;struct2 -->
<g id="edge1" class="edge">
<title>struct1:f10&#45;&gt;struct2</title>
<path fill="none" stroke="#000000" d="M149.8226,-61C184.8176,-61 154.9503,-189.3619 177.6452,-216 180.4884,-219.3372 183.6898,-222.3371 187.1508,-225.0338"/>
<polygon fill="#000000" stroke="#000000" points="185.4088,-228.0811 195.651,-230.7917 189.3346,-222.2856 185.4088,-228.0811"/>
</g>
</g>
</svg>
