<?xml version="1.0" encoding="UTF-8" standalone="no"?>
<!DOCTYPE svg PUBLIC "-//W3C//DTD SVG 1.1//EN"
 "http://www.w3.org/Graphics/SVG/1.1/DTD/svg11.dtd">
<!-- Generated by graphviz version 2.40.1 (20161225.0304)
 -->
<!-- Title: G Pages: 1 -->
<svg width="808pt" height="306pt"
 viewBox="0.00 0.00 808.22 306.00" xmlns="http://www.w3.org/2000/svg" xmlns:xlink="http://www.w3.org/1999/xlink">
<g id="graph0" class="graph" transform="scale(1 1) rotate(0) translate(4 302)">
<title>G</title>
<polygon fill="#ffffff" stroke="transparent" points="-4,4 -4,-302 804.2156,-302 804.2156,4 -4,4"/>
<g id="clust1" class="cluster">
<title>cluster_block</title>
<polygon fill="none" stroke="#000000" points="8,-8 8,-290 792.2156,-290 792.2156,-8 8,-8"/>
<text text-anchor="middle" x="400.1078" y="-273.4" font-family="Times,serif" font-size="14.00" fill="#000000">block</text>
</g>
<g id="clust2" class="cluster">
<title>cluster_availableheader</title>
<polygon fill="none" stroke="#000000" points="298.8206,-26 298.8206,-117 431.7596,-117 431.7596,-26 298.8206,-26"/>
<text text-anchor="middle" x="365.2901" y="-100.4" font-family="Times,serif" font-size="14.00" fill="#000000">availableDataHeader</text>
</g>
<g id="clust3" class="cluster">
<title>cluster_body</title>
<polygon fill="none" stroke="#000000" points="602.0788,-42 602.0788,-183 784.2156,-183 784.2156,-42 602.0788,-42"/>
<text text-anchor="middle" x="693.1472" y="-166.4" font-family="Times,serif" font-size="14.00" fill="#000000">availableData</text>
</g>
<g id="clust4" class="cluster">
<title>cluster_lastcommit</title>
<polygon fill="none" stroke="#000000" points="316.1204,-137 316.1204,-215 413.4598,-215 413.4598,-137 316.1204,-137"/>
<text text-anchor="middle" x="364.7901" y="-198.4" font-family="Times,serif" font-size="14.00" fill="#000000">lastCommit</text>
</g>
<g id="clust5" class="cluster">
<title>cluster_header</title>
<polygon fill="none" stroke="#000000" points="16,-16 16,-257 152.1838,-257 152.1838,-16 16,-16"/>
<text text-anchor="middle" x="84.0919" y="-240.4" font-family="Times,serif" font-size="14.00" fill="#000000">header</text>
</g>
<!-- struct4 -->
<g id="node1" class="node">
<title>struct4</title>
<polygon fill="none" stroke="#000000" points="319.8206,-34.2 319.8206,-83.8 409.7596,-83.8 409.7596,-34.2 319.8206,-34.2"/>
<text text-anchor="middle" x="329.5706" y="-54.8" font-family="Times,serif" font-size="14.00" fill="#000000"> </text>
<polyline fill="none" stroke="#000000" points="339.3206,-34.2 339.3206,-83.8 "/>
<text text-anchor="middle" x="374.5401" y="-67.2" font-family="Times,serif" font-size="14.00" fill="#000000">rowRoots</text>
<polyline fill="none" stroke="#000000" points="339.3206,-59 409.7596,-59 "/>
<text text-anchor="middle" x="374.5401" y="-42.4" font-family="Times,serif" font-size="14.00" fill="#000000">colRoots</text>
</g>
<!-- struct3 -->
<g id="node2" class="node">
<title>struct3</title>
<polygon fill="none" stroke="#000000" points="610.0788,-50.4 610.0788,-149.6 776.2156,-149.6 776.2156,-50.4 610.0788,-50.4"/>
<text text-anchor="middle" x="619.8288" y="-95.8" font-family="Times,serif" font-size="14.00" fill="#000000"> </text>
<polyline fill="none" stroke="#000000" points="629.5788,-50.4 629.5788,-149.6 "/>
<text text-anchor="middle" x="702.8972" y="-133" font-family="Times,serif" font-size="14.00" fill="#000000">transactionData</text>
<polyline fill="none" stroke="#000000" points="629.5788,-124.8 776.2156,-124.8 "/>
<text text-anchor="middle" x="702.8972" y="-108.2" font-family="Times,serif" font-size="14.00" fill="#000000">intermediateStateRoots</text>
<polyline fill="none" stroke="#000000" points="629.5788,-100 776.2156,-100 "/>
<text text-anchor="middle" x="702.8972" y="-83.4" font-family="Times,serif" font-size="14.00" fill="#000000">evidenceData</text>
<polyline fill="none" stroke="#000000" points="629.5788,-75.2 776.2156,-75.2 "/>
<text text-anchor="middle" x="702.8972" y="-58.6" font-family="Times,serif" font-size="14.00" fill="#000000">messageData</text>
</g>
<!-- struct4&#45;&gt;struct3 -->
<g id="edge3" class="edge">
<title>struct4:f0&#45;&gt;struct3</title>
<path fill="none" stroke="#000000" d="M329.7901,-84C329.7901,-87.3793 569.7054,-87.1998 573.0788,-87.4 581.7438,-87.9141 590.7476,-88.5917 599.7537,-89.3663"/>
<polygon fill="#000000" stroke="#000000" points="599.6318,-92.8694 609.9049,-90.2786 600.2584,-85.8975 599.6318,-92.8694"/>
<text text-anchor="middle" x="520.4192" y="-108" font-family="Times,serif" font-size="14.00" fill="#000000">NMT roots to</text>
<text text-anchor="middle" x="520.4192" y="-91.2" font-family="Times,serif" font-size="14.00" fill="#000000">erasure&#45;coded data</text>
</g>
<!-- struct2 -->
<g id="node3" class="node">
<title>struct2</title>
<polygon fill="none" stroke="#000000" points="324.1204,-146 324.1204,-182 405.4598,-182 405.4598,-146 324.1204,-146"/>
<text text-anchor="middle" x="364.7901" y="-159.9" font-family="Times,serif" font-size="14.00" fill="#000000">lastCommit</text>
</g>
<!-- struct1 -->
<g id="node4" class="node">
<title>struct1</title>
<polygon fill="none" stroke="#000000" points="24,-24.8 24,-223.2 144.1838,-223.2 144.1838,-24.8 24,-24.8"/>
<text text-anchor="middle" x="84.0919" y="-206.6" font-family="Times,serif" font-size="14.00" fill="#000000">height</text>
<polyline fill="none" stroke="#000000" points="24,-198.4 144.1838,-198.4 "/>
<text text-anchor="middle" x="84.0919" y="-181.8" font-family="Times,serif" font-size="14.00" fill="#000000">timestamp</text>
<polyline fill="none" stroke="#000000" points="24,-173.6 144.1838,-173.6 "/>
<text text-anchor="middle" x="84.0919" y="-157" font-family="Times,serif" font-size="14.00" fill="#000000">lastBlockID</text>
<polyline fill="none" stroke="#000000" points="24,-148.8 144.1838,-148.8 "/>
<text text-anchor="middle" x="84.0919" y="-132.2" font-family="Times,serif" font-size="14.00" fill="#000000">lastCommitRoot</text>
<polyline fill="none" stroke="#000000" points="24,-124 144.1838,-124 "/>
<text text-anchor="middle" x="84.0919" y="-107.4" font-family="Times,serif" font-size="14.00" fill="#000000">consensusRoot</text>
<polyline fill="none" stroke="#000000" points="24,-99.2 144.1838,-99.2 "/>
<text text-anchor="middle" x="84.0919" y="-82.6" font-family="Times,serif" font-size="14.00" fill="#000000">stateCommitment</text>
<polyline fill="none" stroke="#000000" points="24,-74.4 144.1838,-74.4 "/>
<text text-anchor="middle" x="84.0919" y="-57.8" font-family="Times,serif" font-size="14.00" fill="#000000">availableDataRoot</text>
<polyline fill="none" stroke="#000000" points="24,-49.6 144.1838,-49.6 "/>
<text text-anchor="middle" x="84.0919" y="-33" font-family="Times,serif" font-size="14.00" fill="#000000">proposerAddress</text>
</g>
<!-- struct1&#45;&gt;struct4 -->
<g id="edge2" class="edge">
<title>struct1:f6&#45;&gt;struct4</title>
<path fill="none" stroke="#000000" d="M144.0919,-62C200.4387,-62 264.8702,-61.0102 309.508,-60.1677"/>
<polygon fill="#000000" stroke="#000000" points="309.6349,-63.666 319.5657,-59.974 309.5001,-56.6673 309.6349,-63.666"/>
<text text-anchor="middle" x="222.0022" y="-65.2" font-family="Times,serif" font-size="14.00" fill="#000000">Merkle root of</text>
</g>
<!-- struct1&#45;&gt;struct4 -->
<!-- struct1&#45;&gt;struct3 -->
<!-- struct1&#45;&gt;struct2 -->
<g id="edge1" class="edge">
<title>struct1:f3&#45;&gt;struct2</title>
<path fill="none" stroke="#000000" d="M144.0919,-136C202.6767,-136 269.3186,-145.8302 313.9018,-153.8414"/>
<polygon fill="#000000" stroke="#000000" points="313.4372,-157.3145 323.9044,-155.6749 314.6994,-150.4292 313.4372,-157.3145"/>
</g>
</g>
</svg>
