<?xml version="1.0" encoding="UTF-8" standalone="no"?>
<!DOCTYPE svg PUBLIC "-//W3C//DTD SVG 1.1//EN"
 "http://www.w3.org/Graphics/SVG/1.1/DTD/svg11.dtd">
<!-- Generated by graphviz version 2.40.1 (20161225.0304)
 -->
<!-- Title: G Pages: 1 -->
<svg width="789pt" height="355pt"
 viewBox="0.00 0.00 788.83 355.00" xmlns="http://www.w3.org/2000/svg" xmlns:xlink="http://www.w3.org/1999/xlink">
<g id="graph0" class="graph" transform="scale(1 1) rotate(0) translate(4 351)">
<title>G</title>
<polygon fill="#ffffff" stroke="transparent" points="-4,4 -4,-351 784.8284,-351 784.8284,4 -4,4"/>
<g id="clust1" class="cluster">
<title>cluster_block</title>
<polygon fill="none" stroke="#000000" points="8,-8 8,-339 772.8284,-339 772.8284,-8 8,-8"/>
<text text-anchor="middle" x="390.4142" y="-322.4" font-family="Times,serif" font-size="14.00" fill="#000000">block</text>
</g>
<g id="clust2" class="cluster">
<title>cluster_lastcommit</title>
<polygon fill="none" stroke="#000000" points="256.6621,-62 256.6621,-140 354.0015,-140 354.0015,-62 256.6621,-62"/>
<text text-anchor="middle" x="305.3318" y="-123.4" font-family="Times,serif" font-size="14.00" fill="#000000">lastCommit</text>
</g>
<g id="clust3" class="cluster">
<title>cluster_body</title>
<polygon fill="none" stroke="#000000" points="582.6916,-110 582.6916,-251 764.8284,-251 764.8284,-110 582.6916,-110"/>
<text text-anchor="middle" x="673.76" y="-234.4" font-family="Times,serif" font-size="14.00" fill="#000000">availableData</text>
</g>
<g id="clust4" class="cluster">
<title>cluster_availableheader</title>
<polygon fill="none" stroke="#000000" points="211.1838,-160 211.1838,-238 399.4798,-238 399.4798,-160 211.1838,-160"/>
<text text-anchor="middle" x="305.3318" y="-221.4" font-family="Times,serif" font-size="14.00" fill="#000000">availableDataHeader</text>
</g>
<g id="clust5" class="cluster">
<title>cluster_header</title>
<polygon fill="none" stroke="#000000" points="16,-16 16,-306 152.1838,-306 152.1838,-16 16,-16"/>
<text text-anchor="middle" x="84.0919" y="-289.4" font-family="Times,serif" font-size="14.00" fill="#000000">header</text>
</g>
<!-- struct4 -->
<g id="node1" class="node">
<title>struct4</title>
<polygon fill="none" stroke="#000000" points="264.6621,-71 264.6621,-107 346.0015,-107 346.0015,-71 264.6621,-71"/>
<text text-anchor="middle" x="305.3318" y="-84.9" font-family="Times,serif" font-size="14.00" fill="#000000">lastCommit</text>
</g>
<!-- struct3 -->
<g id="node2" class="node">
<title>struct3</title>
<polygon fill="none" stroke="#000000" points="590.6916,-118.4 590.6916,-217.6 756.8284,-217.6 756.8284,-118.4 590.6916,-118.4"/>
<text text-anchor="middle" x="600.4416" y="-163.8" font-family="Times,serif" font-size="14.00" fill="#000000"> </text>
<polyline fill="none" stroke="#000000" points="610.1916,-118.4 610.1916,-217.6 "/>
<text text-anchor="middle" x="683.51" y="-201" font-family="Times,serif" font-size="14.00" fill="#000000">transactionData</text>
<polyline fill="none" stroke="#000000" points="610.1916,-192.8 756.8284,-192.8 "/>
<text text-anchor="middle" x="683.51" y="-176.2" font-family="Times,serif" font-size="14.00" fill="#000000">intermediateStateRoots</text>
<polyline fill="none" stroke="#000000" points="610.1916,-168 756.8284,-168 "/>
<text text-anchor="middle" x="683.51" y="-151.4" font-family="Times,serif" font-size="14.00" fill="#000000">evidenceData</text>
<polyline fill="none" stroke="#000000" points="610.1916,-143.2 756.8284,-143.2 "/>
<text text-anchor="middle" x="683.51" y="-126.6" font-family="Times,serif" font-size="14.00" fill="#000000">messageData</text>
</g>
<!-- struct2 -->
<g id="node3" class="node">
<title>struct2</title>
<polygon fill="none" stroke="#000000" points="219.1838,-169 219.1838,-205 391.4798,-205 391.4798,-169 219.1838,-169"/>
<text text-anchor="middle" x="305.3318" y="-182.9" font-family="Times,serif" font-size="14.00" fill="#000000">availableDataCommitments</text>
</g>
<!-- struct2&#45;&gt;struct3 -->
<g id="edge2" class="edge">
<title>struct2:f0&#45;&gt;struct3</title>
<path fill="none" stroke="#000000" d="M391.7118,-182.5453C448.2927,-179.6274 522.2205,-175.815 580.1938,-172.8252"/>
<polygon fill="#000000" stroke="#000000" points="580.65,-176.3065 590.4564,-172.296 580.2894,-169.3158 580.65,-176.3065"/>
<text text-anchor="middle" x="491.0857" y="-201" font-family="Times,serif" font-size="14.00" fill="#000000">NMT commitments to</text>
<text text-anchor="middle" x="491.0857" y="-184.2" font-family="Times,serif" font-size="14.00" fill="#000000">erasure&#45;coded data</text>
</g>
<!-- struct1 -->
<g id="node4" class="node">
<title>struct1</title>
<polygon fill="none" stroke="#000000" points="24,-25 24,-273 144.1838,-273 144.1838,-25 24,-25"/>
<text text-anchor="middle" x="84.0919" y="-256.4" font-family="Times,serif" font-size="14.00" fill="#000000">version</text>
<polyline fill="none" stroke="#000000" points="24,-248.2 144.1838,-248.2 "/>
<text text-anchor="middle" x="84.0919" y="-231.6" font-family="Times,serif" font-size="14.00" fill="#000000">chainID</text>
<polyline fill="none" stroke="#000000" points="24,-223.4 144.1838,-223.4 "/>
<text text-anchor="middle" x="84.0919" y="-206.8" font-family="Times,serif" font-size="14.00" fill="#000000">height</text>
<polyline fill="none" stroke="#000000" points="24,-198.6 144.1838,-198.6 "/>
<text text-anchor="middle" x="84.0919" y="-182" font-family="Times,serif" font-size="14.00" fill="#000000">time</text>
<polyline fill="none" stroke="#000000" points="24,-173.8 144.1838,-173.8 "/>
<text text-anchor="middle" x="84.0919" y="-157.2" font-family="Times,serif" font-size="14.00" fill="#000000">lastBlockID</text>
<polyline fill="none" stroke="#000000" points="24,-149 144.1838,-149 "/>
<text text-anchor="middle" x="84.0919" y="-132.4" font-family="Times,serif" font-size="14.00" fill="#000000">lastCommitRoot</text>
<polyline fill="none" stroke="#000000" points="24,-124.2 144.1838,-124.2 "/>
<text text-anchor="middle" x="84.0919" y="-107.6" font-family="Times,serif" font-size="14.00" fill="#000000">consensusHash</text>
<polyline fill="none" stroke="#000000" points="24,-99.4 144.1838,-99.4 "/>
<text text-anchor="middle" x="84.0919" y="-82.8" font-family="Times,serif" font-size="14.00" fill="#000000">stateCommitment</text>
<polyline fill="none" stroke="#000000" points="24,-74.6 144.1838,-74.6 "/>
<text text-anchor="middle" x="84.0919" y="-58" font-family="Times,serif" font-size="14.00" fill="#000000">availableDataRoot</text>
<polyline fill="none" stroke="#000000" points="24,-49.8 144.1838,-49.8 "/>
<text text-anchor="middle" x="84.0919" y="-33.2" font-family="Times,serif" font-size="14.00" fill="#000000">proposerAddress</text>
</g>
<!-- struct1&#45;&gt;struct4 -->
<!-- struct1&#45;&gt;struct3 -->
<!-- struct1&#45;&gt;struct2 -->
<g id="edge1" class="edge">
<title>struct1:f8&#45;&gt;struct2</title>
<path fill="none" stroke="#000000" d="M144.0919,-62C162.397,-62 151.2322,-84.3324 162.1838,-99 179.8739,-122.6925 186.5432,-127.6564 211.1838,-144 222.8723,-151.7527 236.1855,-158.7753 249.0461,-164.7922"/>
<polygon fill="#000000" stroke="#000000" points="247.7484,-168.0467 258.301,-168.9918 250.6409,-161.6723 247.7484,-168.0467"/>
</g>
</g>
</svg>
