<?xml version="1.0" encoding="UTF-8" standalone="no"?>
<!DOCTYPE svg PUBLIC "-//W3C//DTD SVG 1.1//EN"
 "http://www.w3.org/Graphics/SVG/1.1/DTD/svg11.dtd">
<!-- Generated by graphviz version 2.40.1 (20161225.0304)
 -->
<!-- Title: G Pages: 1 -->
<svg width="794pt" height="330pt"
 viewBox="0.00 0.00 794.29 330.00" xmlns="http://www.w3.org/2000/svg" xmlns:xlink="http://www.w3.org/1999/xlink">
<g id="graph0" class="graph" transform="scale(1 1) rotate(0) translate(4 326)">
<title>G</title>
<polygon fill="#ffffff" stroke="transparent" points="-4,4 -4,-326 790.2898,-326 790.2898,4 -4,4"/>
<g id="clust1" class="cluster">
<title>cluster_block</title>
<polygon fill="none" stroke="#000000" points="8,-8 8,-314 778.2898,-314 778.2898,-8 8,-8"/>
<text text-anchor="middle" x="393.1449" y="-297.4" font-family="Times,serif" font-size="14.00" fill="#000000">block</text>
</g>
<g id="clust2" class="cluster">
<title>cluster_availableheader</title>
<polygon fill="none" stroke="#000000" points="216.6452,-45 216.6452,-123 404.9412,-123 404.9412,-45 216.6452,-45"/>
<text text-anchor="middle" x="310.7932" y="-106.4" font-family="Times,serif" font-size="14.00" fill="#000000">availableDataHeader</text>
</g>
<g id="clust3" class="cluster">
<title>cluster_body</title>
<polygon fill="none" stroke="#000000" points="588.153,-46 588.153,-187 770.2898,-187 770.2898,-46 588.153,-46"/>
<text text-anchor="middle" x="679.2214" y="-170.4" font-family="Times,serif" font-size="14.00" fill="#000000">availableData</text>
</g>
<g id="clust4" class="cluster">
<title>cluster_lastcommit</title>
<polygon fill="none" stroke="#000000" points="262.1235,-143 262.1235,-221 359.4629,-221 359.4629,-143 262.1235,-143"/>
<text text-anchor="middle" x="310.7932" y="-204.4" font-family="Times,serif" font-size="14.00" fill="#000000">lastCommit</text>
</g>
<g id="clust5" class="cluster">
<title>cluster_header</title>
<polygon fill="none" stroke="#000000" points="16,-16 16,-281 157.6452,-281 157.6452,-16 16,-16"/>
<text text-anchor="middle" x="86.8226" y="-264.4" font-family="Times,serif" font-size="14.00" fill="#000000">header</text>
</g>
<!-- struct4 -->
<g id="node1" class="node">
<title>struct4</title>
<polygon fill="none" stroke="#000000" points="224.6452,-54 224.6452,-90 396.9412,-90 396.9412,-54 224.6452,-54"/>
<text text-anchor="middle" x="310.7932" y="-67.9" font-family="Times,serif" font-size="14.00" fill="#000000">availableDataCommitments</text>
</g>
<!-- struct3 -->
<g id="node2" class="node">
<title>struct3</title>
<polygon fill="none" stroke="#000000" points="596.153,-54.4 596.153,-153.6 762.2898,-153.6 762.2898,-54.4 596.153,-54.4"/>
<text text-anchor="middle" x="605.903" y="-99.8" font-family="Times,serif" font-size="14.00" fill="#000000"> </text>
<polyline fill="none" stroke="#000000" points="615.653,-54.4 615.653,-153.6 "/>
<text text-anchor="middle" x="688.9714" y="-137" font-family="Times,serif" font-size="14.00" fill="#000000">transactionData</text>
<polyline fill="none" stroke="#000000" points="615.653,-128.8 762.2898,-128.8 "/>
<text text-anchor="middle" x="688.9714" y="-112.2" font-family="Times,serif" font-size="14.00" fill="#000000">intermediateStateRoots</text>
<polyline fill="none" stroke="#000000" points="615.653,-104 762.2898,-104 "/>
<text text-anchor="middle" x="688.9714" y="-87.4" font-family="Times,serif" font-size="14.00" fill="#000000">evidenceData</text>
<polyline fill="none" stroke="#000000" points="615.653,-79.2 762.2898,-79.2 "/>
<text text-anchor="middle" x="688.9714" y="-62.6" font-family="Times,serif" font-size="14.00" fill="#000000">messageData</text>
</g>
<!-- struct4&#45;&gt;struct3 -->
<g id="edge3" class="edge">
<title>struct4:f0&#45;&gt;struct3</title>
<path fill="none" stroke="#000000" d="M397.0017,-79.3834C444.7837,-83.4869 505.2604,-88.6993 559.153,-93.4 567.7866,-94.1531 576.7692,-94.9399 585.7618,-95.7298"/>
<polygon fill="#000000" stroke="#000000" points="585.6327,-99.2319 595.9009,-96.6214 586.2459,-92.2588 585.6327,-99.2319"/>
<text text-anchor="middle" x="496.5471" y="-114" font-family="Times,serif" font-size="14.00" fill="#000000">NMT commitments to</text>
<text text-anchor="middle" x="496.5471" y="-97.2" font-family="Times,serif" font-size="14.00" fill="#000000">erasure&#45;coded data</text>
</g>
<!-- struct2 -->
<g id="node3" class="node">
<title>struct2</title>
<polygon fill="none" stroke="#000000" points="270.1235,-152 270.1235,-188 351.4629,-188 351.4629,-152 270.1235,-152"/>
<text text-anchor="middle" x="310.7932" y="-165.9" font-family="Times,serif" font-size="14.00" fill="#000000">lastCommit</text>
</g>
<!-- struct1 -->
<g id="node4" class="node">
<title>struct1</title>
<polygon fill="none" stroke="#000000" points="24,-24.4 24,-247.6 149.6452,-247.6 149.6452,-24.4 24,-24.4"/>
<text text-anchor="middle" x="86.8226" y="-231" font-family="Times,serif" font-size="14.00" fill="#000000">height</text>
<polyline fill="none" stroke="#000000" points="24,-222.8 149.6452,-222.8 "/>
<text text-anchor="middle" x="86.8226" y="-206.2" font-family="Times,serif" font-size="14.00" fill="#000000">timestamp</text>
<polyline fill="none" stroke="#000000" points="24,-198 149.6452,-198 "/>
<text text-anchor="middle" x="86.8226" y="-181.4" font-family="Times,serif" font-size="14.00" fill="#000000">lastBlockID</text>
<polyline fill="none" stroke="#000000" points="24,-173.2 149.6452,-173.2 "/>
<text text-anchor="middle" x="86.8226" y="-156.6" font-family="Times,serif" font-size="14.00" fill="#000000">lastCommitRoot</text>
<polyline fill="none" stroke="#000000" points="24,-148.4 149.6452,-148.4 "/>
<text text-anchor="middle" x="86.8226" y="-131.8" font-family="Times,serif" font-size="14.00" fill="#000000">nextValidatorsRoot</text>
<polyline fill="none" stroke="#000000" points="24,-123.6 149.6452,-123.6 "/>
<text text-anchor="middle" x="86.8226" y="-107" font-family="Times,serif" font-size="14.00" fill="#000000">consensusRoot</text>
<polyline fill="none" stroke="#000000" points="24,-98.8 149.6452,-98.8 "/>
<text text-anchor="middle" x="86.8226" y="-82.2" font-family="Times,serif" font-size="14.00" fill="#000000">stateCommitment</text>
<polyline fill="none" stroke="#000000" points="24,-74 149.6452,-74 "/>
<text text-anchor="middle" x="86.8226" y="-57.4" font-family="Times,serif" font-size="14.00" fill="#000000">availableDataRoot</text>
<polyline fill="none" stroke="#000000" points="24,-49.2 149.6452,-49.2 "/>
<text text-anchor="middle" x="86.8226" y="-32.6" font-family="Times,serif" font-size="14.00" fill="#000000">proposerAddress</text>
</g>
<!-- struct1&#45;&gt;struct4 -->
<g id="edge2" class="edge">
<title>struct1:f7&#45;&gt;struct4</title>
<path fill="none" stroke="#000000" d="M149.8226,-62C170.7314,-62 193.1385,-62.8509 214.3908,-64.0562"/>
<polygon fill="#000000" stroke="#000000" points="214.1997,-67.5509 224.3907,-64.6536 214.6172,-60.5634 214.1997,-67.5509"/>
</g>
<!-- struct1&#45;&gt;struct4 -->
<!-- struct1&#45;&gt;struct3 -->
<!-- struct1&#45;&gt;struct2 -->
<g id="edge1" class="edge">
<title>struct1:f3&#45;&gt;struct2</title>
<path fill="none" stroke="#000000" d="M149.8226,-161C186.5375,-161 227.8895,-163.3629 259.4873,-165.6672"/>
<polygon fill="#000000" stroke="#000000" points="259.5742,-169.1835 269.8084,-166.443 260.0989,-162.2032 259.5742,-169.1835"/>
</g>
</g>
</svg>
