<?xml version="1.0" encoding="UTF-8" standalone="no"?>
<!DOCTYPE svg PUBLIC "-//W3C//DTD SVG 1.1//EN"
 "http://www.w3.org/Graphics/SVG/1.1/DTD/svg11.dtd">
<!-- Generated by graphviz version 2.40.1 (20161225.0304)
 -->
<!-- Title: G Pages: 1 -->
<svg width="789pt" height="355pt"
 viewBox="0.00 0.00 788.83 355.00" xmlns="http://www.w3.org/2000/svg" xmlns:xlink="http://www.w3.org/1999/xlink">
<g id="graph0" class="graph" transform="scale(1 1) rotate(0) translate(4 351)">
<title>G</title>
<polygon fill="#ffffff" stroke="transparent" points="-4,4 -4,-351 784.8284,-351 784.8284,4 -4,4"/>
<g id="clust1" class="cluster">
<title>cluster_block</title>
<polygon fill="none" stroke="#000000" points="8,-8 8,-339 772.8284,-339 772.8284,-8 8,-8"/>
<text text-anchor="middle" x="390.4142" y="-322.4" font-family="Times,serif" font-size="14.00" fill="#000000">block</text>
</g>
<g id="clust2" class="cluster">
<title>cluster_availableheader</title>
<polygon fill="none" stroke="#000000" points="211.1838,-66 211.1838,-144 399.4798,-144 399.4798,-66 211.1838,-66"/>
<text text-anchor="middle" x="305.3318" y="-127.4" font-family="Times,serif" font-size="14.00" fill="#000000">availableDataHeader</text>
</g>
<g id="clust3" class="cluster">
<title>cluster_body</title>
<polygon fill="none" stroke="#000000" points="582.6916,-67 582.6916,-208 764.8284,-208 764.8284,-67 582.6916,-67"/>
<text text-anchor="middle" x="673.76" y="-191.4" font-family="Times,serif" font-size="14.00" fill="#000000">availableData</text>
</g>
<g id="clust4" class="cluster">
<title>cluster_lastcommit</title>
<polygon fill="none" stroke="#000000" points="256.6621,-164 256.6621,-242 354.0015,-242 354.0015,-164 256.6621,-164"/>
<text text-anchor="middle" x="305.3318" y="-225.4" font-family="Times,serif" font-size="14.00" fill="#000000">lastCommit</text>
</g>
<g id="clust5" class="cluster">
<title>cluster_header</title>
<polygon fill="none" stroke="#000000" points="16,-16 16,-306 152.1838,-306 152.1838,-16 16,-16"/>
<text text-anchor="middle" x="84.0919" y="-289.4" font-family="Times,serif" font-size="14.00" fill="#000000">header</text>
</g>
<!-- struct4 -->
<g id="node1" class="node">
<title>struct4</title>
<polygon fill="none" stroke="#000000" points="219.1838,-75 219.1838,-111 391.4798,-111 391.4798,-75 219.1838,-75"/>
<text text-anchor="middle" x="305.3318" y="-88.9" font-family="Times,serif" font-size="14.00" fill="#000000">availableDataCommitments</text>
</g>
<!-- struct3 -->
<g id="node2" class="node">
<title>struct3</title>
<polygon fill="none" stroke="#000000" points="590.6916,-75.4 590.6916,-174.6 756.8284,-174.6 756.8284,-75.4 590.6916,-75.4"/>
<text text-anchor="middle" x="600.4416" y="-120.8" font-family="Times,serif" font-size="14.00" fill="#000000"> </text>
<polyline fill="none" stroke="#000000" points="610.1916,-75.4 610.1916,-174.6 "/>
<text text-anchor="middle" x="683.51" y="-158" font-family="Times,serif" font-size="14.00" fill="#000000">transactionData</text>
<polyline fill="none" stroke="#000000" points="610.1916,-149.8 756.8284,-149.8 "/>
<text text-anchor="middle" x="683.51" y="-133.2" font-family="Times,serif" font-size="14.00" fill="#000000">intermediateStateRoots</text>
<polyline fill="none" stroke="#000000" points="610.1916,-125 756.8284,-125 "/>
<text text-anchor="middle" x="683.51" y="-108.4" font-family="Times,serif" font-size="14.00" fill="#000000">evidenceData</text>
<polyline fill="none" stroke="#000000" points="610.1916,-100.2 756.8284,-100.2 "/>
<text text-anchor="middle" x="683.51" y="-83.6" font-family="Times,serif" font-size="14.00" fill="#000000">messageData</text>
</g>
<!-- struct4&#45;&gt;struct3 -->
<g id="edge3" class="edge">
<title>struct4:f0&#45;&gt;struct3</title>
<path fill="none" stroke="#000000" d="M391.5403,-100.3834C439.3223,-104.4869 499.799,-109.6993 553.6916,-114.4 562.3252,-115.1531 571.3078,-115.9399 580.3004,-116.7298"/>
<polygon fill="#000000" stroke="#000000" points="580.1713,-120.2319 590.4395,-117.6214 580.7845,-113.2588 580.1713,-120.2319"/>
<text text-anchor="middle" x="491.0857" y="-135" font-family="Times,serif" font-size="14.00" fill="#000000">NMT commitments to</text>
<text text-anchor="middle" x="491.0857" y="-118.2" font-family="Times,serif" font-size="14.00" fill="#000000">erasure&#45;coded data</text>
</g>
<!-- struct2 -->
<g id="node3" class="node">
<title>struct2</title>
<polygon fill="none" stroke="#000000" points="264.6621,-173 264.6621,-209 346.0015,-209 346.0015,-173 264.6621,-173"/>
<text text-anchor="middle" x="305.3318" y="-186.9" font-family="Times,serif" font-size="14.00" fill="#000000">lastCommit</text>
</g>
<!-- struct1 -->
<g id="node4" class="node">
<title>struct1</title>
<polygon fill="none" stroke="#000000" points="24,-25 24,-273 144.1838,-273 144.1838,-25 24,-25"/>
<text text-anchor="middle" x="84.0919" y="-256.4" font-family="Times,serif" font-size="14.00" fill="#000000">version</text>
<polyline fill="none" stroke="#000000" points="24,-248.2 144.1838,-248.2 "/>
<text text-anchor="middle" x="84.0919" y="-231.6" font-family="Times,serif" font-size="14.00" fill="#000000">chainID</text>
<polyline fill="none" stroke="#000000" points="24,-223.4 144.1838,-223.4 "/>
<text text-anchor="middle" x="84.0919" y="-206.8" font-family="Times,serif" font-size="14.00" fill="#000000">height</text>
<polyline fill="none" stroke="#000000" points="24,-198.6 144.1838,-198.6 "/>
<text text-anchor="middle" x="84.0919" y="-182" font-family="Times,serif" font-size="14.00" fill="#000000">time</text>
<polyline fill="none" stroke="#000000" points="24,-173.8 144.1838,-173.8 "/>
<text text-anchor="middle" x="84.0919" y="-157.2" font-family="Times,serif" font-size="14.00" fill="#000000">lastBlockID</text>
<polyline fill="none" stroke="#000000" points="24,-149 144.1838,-149 "/>
<text text-anchor="middle" x="84.0919" y="-132.4" font-family="Times,serif" font-size="14.00" fill="#000000">lastCommitRoot</text>
<polyline fill="none" stroke="#000000" points="24,-124.2 144.1838,-124.2 "/>
<text text-anchor="middle" x="84.0919" y="-107.6" font-family="Times,serif" font-size="14.00" fill="#000000">consensusRoot</text>
<polyline fill="none" stroke="#000000" points="24,-99.4 144.1838,-99.4 "/>
<text text-anchor="middle" x="84.0919" y="-82.8" font-family="Times,serif" font-size="14.00" fill="#000000">stateCommitment</text>
<polyline fill="none" stroke="#000000" points="24,-74.6 144.1838,-74.6 "/>
<text text-anchor="middle" x="84.0919" y="-58" font-family="Times,serif" font-size="14.00" fill="#000000">availableDataRoot</text>
<polyline fill="none" stroke="#000000" points="24,-49.8 144.1838,-49.8 "/>
<text text-anchor="middle" x="84.0919" y="-33.2" font-family="Times,serif" font-size="14.00" fill="#000000">proposerAddress</text>
</g>
<!-- struct1&#45;&gt;struct4 -->
<g id="edge2" class="edge">
<title>struct1:f8&#45;&gt;struct4</title>
<path fill="none" stroke="#000000" d="M144.0919,-62C173.0341,-62 204.3815,-66.8762 231.6737,-72.7607"/>
<polygon fill="#000000" stroke="#000000" points="231.0103,-76.1988 241.5333,-74.9672 232.539,-69.3677 231.0103,-76.1988"/>
</g>
<!-- struct1&#45;&gt;struct4 -->
<!-- struct1&#45;&gt;struct3 -->
<!-- struct1&#45;&gt;struct2 -->
<g id="edge1" class="edge">
<title>struct1:f5&#45;&gt;struct2</title>
<path fill="none" stroke="#000000" d="M144.0919,-137C185.9613,-137 230.928,-153.5744 262.709,-168.3583"/>
<polygon fill="#000000" stroke="#000000" points="261.5997,-171.7076 272.1307,-172.8686 264.6222,-165.3937 261.5997,-171.7076"/>
</g>
</g>
</svg>
