<?xml version="1.0" encoding="UTF-8" standalone="no"?>
<!DOCTYPE svg PUBLIC "-//W3C//DTD SVG 1.1//EN"
 "http://www.w3.org/Graphics/SVG/1.1/DTD/svg11.dtd">
<!-- Generated by graphviz version 2.40.1 (20161225.0304)
 -->
<!-- Title: G Pages: 1 -->
<svg width="894pt" height="355pt"
 viewBox="0.00 0.00 893.72 355.00" xmlns="http://www.w3.org/2000/svg" xmlns:xlink="http://www.w3.org/1999/xlink">
<g id="graph0" class="graph" transform="scale(1 1) rotate(0) translate(4 351)">
<title>G</title>
<polygon fill="#ffffff" stroke="transparent" points="-4,4 -4,-351 889.7248,-351 889.7248,4 -4,4"/>
<g id="clust1" class="cluster">
<title>cluster_block</title>
<polygon fill="none" stroke="#000000" points="8,-8 8,-339 877.7248,-339 877.7248,-8 8,-8"/>
<text text-anchor="middle" x="442.8624" y="-322.4" font-family="Times,serif" font-size="14.00" fill="#000000">block</text>
</g>
<g id="clust2" class="cluster">
<title>cluster_availableheader</title>
<polygon fill="none" stroke="#000000" points="384.3298,-18 384.3298,-109 517.2688,-109 517.2688,-18 384.3298,-18"/>
<text text-anchor="middle" x="450.7993" y="-92.4" font-family="Times,serif" font-size="14.00" fill="#000000">availableDataHeader</text>
</g>
<g id="clust3" class="cluster">
<title>cluster_body</title>
<polygon fill="none" stroke="#000000" points="687.588,-38 687.588,-179 869.7248,-179 869.7248,-38 687.588,-38"/>
<text text-anchor="middle" x="778.6564" y="-162.4" font-family="Times,serif" font-size="14.00" fill="#000000">availableData</text>
</g>
<g id="clust4" class="cluster">
<title>cluster_feeheader</title>
<polygon fill="none" stroke="#000000" points="409.0342,-129 409.0342,-220 491.5644,-220 491.5644,-129 409.0342,-129"/>
<text text-anchor="middle" x="450.2993" y="-203.4" font-family="Times,serif" font-size="14.00" fill="#000000">feeHeader</text>
</g>
<g id="clust5" class="cluster">
<title>cluster_lastcommit</title>
<polygon fill="none" stroke="#000000" points="401.6296,-228 401.6296,-306 498.969,-306 498.969,-228 401.6296,-228"/>
<text text-anchor="middle" x="450.2993" y="-289.4" font-family="Times,serif" font-size="14.00" fill="#000000">lastCommit</text>
</g>
<g id="clust6" class="cluster">
<title>cluster_header</title>
<polygon fill="none" stroke="#000000" points="16,-16 16,-306 237.693,-306 237.693,-16 16,-16"/>
<text text-anchor="middle" x="126.8465" y="-289.4" font-family="Times,serif" font-size="14.00" fill="#000000">header</text>
</g>
<!-- struct5 -->
<g id="node1" class="node">
<title>struct5</title>
<polygon fill="none" stroke="#000000" points="405.3298,-26.2 405.3298,-75.8 495.2688,-75.8 495.2688,-26.2 405.3298,-26.2"/>
<text text-anchor="middle" x="415.0798" y="-46.8" font-family="Times,serif" font-size="14.00" fill="#000000"> </text>
<polyline fill="none" stroke="#000000" points="424.8298,-26.2 424.8298,-75.8 "/>
<text text-anchor="middle" x="460.0493" y="-59.2" font-family="Times,serif" font-size="14.00" fill="#000000">rowRoots</text>
<polyline fill="none" stroke="#000000" points="424.8298,-51 495.2688,-51 "/>
<text text-anchor="middle" x="460.0493" y="-34.4" font-family="Times,serif" font-size="14.00" fill="#000000">colRoots</text>
</g>
<!-- struct4 -->
<g id="node2" class="node">
<title>struct4</title>
<polygon fill="none" stroke="#000000" points="695.588,-46.4 695.588,-145.6 861.7248,-145.6 861.7248,-46.4 695.588,-46.4"/>
<text text-anchor="middle" x="705.338" y="-91.8" font-family="Times,serif" font-size="14.00" fill="#000000"> </text>
<polyline fill="none" stroke="#000000" points="715.088,-46.4 715.088,-145.6 "/>
<text text-anchor="middle" x="788.4064" y="-129" font-family="Times,serif" font-size="14.00" fill="#000000">transactionData</text>
<polyline fill="none" stroke="#000000" points="715.088,-120.8 861.7248,-120.8 "/>
<text text-anchor="middle" x="788.4064" y="-104.2" font-family="Times,serif" font-size="14.00" fill="#000000">intermediateStateRoots</text>
<polyline fill="none" stroke="#000000" points="715.088,-96 861.7248,-96 "/>
<text text-anchor="middle" x="788.4064" y="-79.4" font-family="Times,serif" font-size="14.00" fill="#000000">evidenceData</text>
<polyline fill="none" stroke="#000000" points="715.088,-71.2 861.7248,-71.2 "/>
<text text-anchor="middle" x="788.4064" y="-54.6" font-family="Times,serif" font-size="14.00" fill="#000000">messageData</text>
</g>
<!-- struct5&#45;&gt;struct4 -->
<g id="edge4" class="edge">
<title>struct5:f0&#45;&gt;struct4</title>
<path fill="none" stroke="#000000" d="M415.2993,-76C415.2993,-79.3793 655.2183,-79.1445 658.588,-79.4 667.278,-80.0589 676.2987,-80.9391 685.3156,-81.9516"/>
<polygon fill="#000000" stroke="#000000" points="685.1362,-85.4546 695.4765,-83.1464 685.9537,-78.5025 685.1362,-85.4546"/>
<text text-anchor="middle" x="605.9284" y="-100" font-family="Times,serif" font-size="14.00" fill="#000000">NMT roots to</text>
<text text-anchor="middle" x="605.9284" y="-83.2" font-family="Times,serif" font-size="14.00" fill="#000000">erasure&#45;coded data</text>
</g>
<!-- struct3 -->
<g id="node3" class="node">
<title>struct3</title>
<polygon fill="none" stroke="#000000" points="417.0342,-137.2 417.0342,-186.8 483.5644,-186.8 483.5644,-137.2 417.0342,-137.2"/>
<text text-anchor="middle" x="450.2993" y="-170.2" font-family="Times,serif" font-size="14.00" fill="#000000">baseRate</text>
<polyline fill="none" stroke="#000000" points="417.0342,-162 483.5644,-162 "/>
<text text-anchor="middle" x="450.2993" y="-145.4" font-family="Times,serif" font-size="14.00" fill="#000000">tipRate</text>
</g>
<!-- struct2 -->
<g id="node4" class="node">
<title>struct2</title>
<polygon fill="none" stroke="#000000" points="409.6296,-237 409.6296,-273 490.969,-273 490.969,-237 409.6296,-237"/>
<text text-anchor="middle" x="450.2993" y="-250.9" font-family="Times,serif" font-size="14.00" fill="#000000">lastCommit</text>
</g>
<!-- struct1 -->
<g id="node5" class="node">
<title>struct1</title>
<polygon fill="none" stroke="#000000" points="24,-25 24,-273 229.693,-273 229.693,-25 24,-25"/>
<text text-anchor="middle" x="126.8465" y="-256.4" font-family="Times,serif" font-size="14.00" fill="#000000">height</text>
<polyline fill="none" stroke="#000000" points="24,-248.2 229.693,-248.2 "/>
<text text-anchor="middle" x="126.8465" y="-231.6" font-family="Times,serif" font-size="14.00" fill="#000000">timestamp</text>
<polyline fill="none" stroke="#000000" points="24,-223.4 229.693,-223.4 "/>
<text text-anchor="middle" x="126.8465" y="-206.8" font-family="Times,serif" font-size="14.00" fill="#000000">lastBlockID</text>
<polyline fill="none" stroke="#000000" points="24,-198.6 229.693,-198.6 "/>
<text text-anchor="middle" x="126.8465" y="-182" font-family="Times,serif" font-size="14.00" fill="#000000">lastCommitHash</text>
<polyline fill="none" stroke="#000000" points="24,-173.8 229.693,-173.8 "/>
<text text-anchor="middle" x="126.8465" y="-157.2" font-family="Times,serif" font-size="14.00" fill="#000000">consensusRoot</text>
<polyline fill="none" stroke="#000000" points="24,-149 229.693,-149 "/>
<text text-anchor="middle" x="126.8465" y="-132.4" font-family="Times,serif" font-size="14.00" fill="#000000">feeHeader</text>
<polyline fill="none" stroke="#000000" points="24,-124.2 229.693,-124.2 "/>
<text text-anchor="middle" x="126.8465" y="-107.6" font-family="Times,serif" font-size="14.00" fill="#000000">stateCommitment</text>
<polyline fill="none" stroke="#000000" points="24,-99.4 229.693,-99.4 "/>
<text text-anchor="middle" x="126.8465" y="-82.8" font-family="Times,serif" font-size="14.00" fill="#000000">availableDataOriginalSharesUsed</text>
<polyline fill="none" stroke="#000000" points="24,-74.6 229.693,-74.6 "/>
<text text-anchor="middle" x="126.8465" y="-58" font-family="Times,serif" font-size="14.00" fill="#000000">availableDataRoot</text>
<polyline fill="none" stroke="#000000" points="24,-49.8 229.693,-49.8 "/>
<text text-anchor="middle" x="126.8465" y="-33.2" font-family="Times,serif" font-size="14.00" fill="#000000">proposerAddress</text>
</g>
<!-- struct1&#45;&gt;struct5 -->
<g id="edge3" class="edge">
<title>struct1:f8&#45;&gt;struct5</title>
<path fill="none" stroke="#000000" d="M229.8465,-62C286.1955,-62 350.5456,-58.3707 395.1139,-55.2815"/>
<polygon fill="#000000" stroke="#000000" points="395.4274,-58.7682 405.1556,-54.5714 394.9335,-51.7856 395.4274,-58.7682"/>
<text text-anchor="middle" x="307.5114" y="-65.2" font-family="Times,serif" font-size="14.00" fill="#000000">Merkle root of</text>
</g>
<!-- struct1&#45;&gt;struct5 -->
<!-- struct1&#45;&gt;struct4 -->
<!-- struct1&#45;&gt;struct3 -->
<g id="edge2" class="edge">
<title>struct1:f5&#45;&gt;struct3</title>
<path fill="none" stroke="#000000" d="M229.8465,-137C240.5519,-137 238.0389,-120.9533 248.693,-122 303.8565,-127.4196 366.3037,-140.9895 406.8851,-150.8234"/>
<polygon fill="#000000" stroke="#000000" points="406.1675,-154.2511 416.7136,-153.2358 407.8362,-147.4529 406.1675,-154.2511"/>
</g>
<!-- struct1&#45;&gt;struct2 -->
<g id="edge1" class="edge">
<title>struct1:f4&#45;&gt;struct2</title>
<path fill="none" stroke="#000000" d="M229.4292,-173.72C229.5172,-173.7467 229.6051,-173.7733 229.693,-173.8 288.9977,-191.7982 355.5706,-217.0161 399.9208,-234.5551"/>
<polygon fill="#000000" stroke="#000000" points="398.7271,-237.847 409.3129,-238.286 401.3114,-231.3414 398.7271,-237.847"/>
</g>
</g>
</svg>
