<?xml version="1.0" encoding="UTF-8" standalone="no"?>
<!DOCTYPE svg PUBLIC "-//W3C//DTD SVG 1.1//EN"
 "http://www.w3.org/Graphics/SVG/1.1/DTD/svg11.dtd">
<!-- Generated by graphviz version 2.40.1 (20161225.0304)
 -->
<!-- Title: G Pages: 1 -->
<svg width="894pt" height="330pt"
 viewBox="0.00 0.00 893.72 330.00" xmlns="http://www.w3.org/2000/svg" xmlns:xlink="http://www.w3.org/1999/xlink">
<g id="graph0" class="graph" transform="scale(1 1) rotate(0) translate(4 326)">
<title>G</title>
<polygon fill="#ffffff" stroke="transparent" points="-4,4 -4,-326 889.7248,-326 889.7248,4 -4,4"/>
<g id="clust1" class="cluster">
<title>cluster_block</title>
<polygon fill="none" stroke="#000000" points="8,-8 8,-314 877.7248,-314 877.7248,-8 8,-8"/>
<text text-anchor="middle" x="442.8624" y="-297.4" font-family="Times,serif" font-size="14.00" fill="#000000">block</text>
</g>
<g id="clust2" class="cluster">
<title>cluster_availableheader</title>
<polygon fill="none" stroke="#000000" points="384.3298,-33 384.3298,-124 517.2688,-124 517.2688,-33 384.3298,-33"/>
<text text-anchor="middle" x="450.7993" y="-107.4" font-family="Times,serif" font-size="14.00" fill="#000000">availableDataHeader</text>
</g>
<g id="clust3" class="cluster">
<title>cluster_body</title>
<polygon fill="none" stroke="#000000" points="687.588,-46 687.588,-187 869.7248,-187 869.7248,-46 687.588,-46"/>
<text text-anchor="middle" x="778.6564" y="-170.4" font-family="Times,serif" font-size="14.00" fill="#000000">availableData</text>
</g>
<g id="clust4" class="cluster">
<title>cluster_lastcommit</title>
<polygon fill="none" stroke="#000000" points="401.6296,-144 401.6296,-222 498.969,-222 498.969,-144 401.6296,-144"/>
<text text-anchor="middle" x="450.2993" y="-205.4" font-family="Times,serif" font-size="14.00" fill="#000000">lastCommit</text>
</g>
<g id="clust5" class="cluster">
<title>cluster_header</title>
<polygon fill="none" stroke="#000000" points="16,-16 16,-281 237.693,-281 237.693,-16 16,-16"/>
<text text-anchor="middle" x="126.8465" y="-264.4" font-family="Times,serif" font-size="14.00" fill="#000000">header</text>
</g>
<!-- struct4 -->
<g id="node1" class="node">
<title>struct4</title>
<polygon fill="none" stroke="#000000" points="405.3298,-41.2 405.3298,-90.8 495.2688,-90.8 495.2688,-41.2 405.3298,-41.2"/>
<text text-anchor="middle" x="415.0798" y="-61.8" font-family="Times,serif" font-size="14.00" fill="#000000"> </text>
<polyline fill="none" stroke="#000000" points="424.8298,-41.2 424.8298,-90.8 "/>
<text text-anchor="middle" x="460.0493" y="-74.2" font-family="Times,serif" font-size="14.00" fill="#000000">rowRoots</text>
<polyline fill="none" stroke="#000000" points="424.8298,-66 495.2688,-66 "/>
<text text-anchor="middle" x="460.0493" y="-49.4" font-family="Times,serif" font-size="14.00" fill="#000000">colRoots</text>
</g>
<!-- struct3 -->
<g id="node2" class="node">
<title>struct3</title>
<polygon fill="none" stroke="#000000" points="695.588,-54.4 695.588,-153.6 861.7248,-153.6 861.7248,-54.4 695.588,-54.4"/>
<text text-anchor="middle" x="705.338" y="-99.8" font-family="Times,serif" font-size="14.00" fill="#000000"> </text>
<polyline fill="none" stroke="#000000" points="715.088,-54.4 715.088,-153.6 "/>
<text text-anchor="middle" x="788.4064" y="-137" font-family="Times,serif" font-size="14.00" fill="#000000">transactionData</text>
<polyline fill="none" stroke="#000000" points="715.088,-128.8 861.7248,-128.8 "/>
<text text-anchor="middle" x="788.4064" y="-112.2" font-family="Times,serif" font-size="14.00" fill="#000000">intermediateStateRoots</text>
<polyline fill="none" stroke="#000000" points="715.088,-104 861.7248,-104 "/>
<text text-anchor="middle" x="788.4064" y="-87.4" font-family="Times,serif" font-size="14.00" fill="#000000">evidenceData</text>
<polyline fill="none" stroke="#000000" points="715.088,-79.2 861.7248,-79.2 "/>
<text text-anchor="middle" x="788.4064" y="-62.6" font-family="Times,serif" font-size="14.00" fill="#000000">messageData</text>
</g>
<!-- struct4&#45;&gt;struct3 -->
<g id="edge3" class="edge">
<title>struct4:f0&#45;&gt;struct3</title>
<path fill="none" stroke="#000000" d="M415.2993,-91C415.2993,-94.3793 655.2124,-94.2416 658.588,-94.4 667.2389,-94.8058 676.2331,-95.3316 685.2331,-95.9279"/>
<polygon fill="#000000" stroke="#000000" points="685.1615,-99.4312 695.3789,-96.6284 685.6438,-92.4478 685.1615,-99.4312"/>
<text text-anchor="middle" x="605.9284" y="-115" font-family="Times,serif" font-size="14.00" fill="#000000">NMT roots to</text>
<text text-anchor="middle" x="605.9284" y="-98.2" font-family="Times,serif" font-size="14.00" fill="#000000">erasure&#45;coded data</text>
</g>
<!-- struct2 -->
<g id="node3" class="node">
<title>struct2</title>
<polygon fill="none" stroke="#000000" points="409.6296,-153 409.6296,-189 490.969,-189 490.969,-153 409.6296,-153"/>
<text text-anchor="middle" x="450.2993" y="-166.9" font-family="Times,serif" font-size="14.00" fill="#000000">lastCommit</text>
</g>
<!-- struct1 -->
<g id="node4" class="node">
<title>struct1</title>
<polygon fill="none" stroke="#000000" points="24,-24.4 24,-247.6 229.693,-247.6 229.693,-24.4 24,-24.4"/>
<text text-anchor="middle" x="126.8465" y="-231" font-family="Times,serif" font-size="14.00" fill="#000000">height</text>
<polyline fill="none" stroke="#000000" points="24,-222.8 229.693,-222.8 "/>
<text text-anchor="middle" x="126.8465" y="-206.2" font-family="Times,serif" font-size="14.00" fill="#000000">timestamp</text>
<polyline fill="none" stroke="#000000" points="24,-198 229.693,-198 "/>
<text text-anchor="middle" x="126.8465" y="-181.4" font-family="Times,serif" font-size="14.00" fill="#000000">lastBlockID</text>
<polyline fill="none" stroke="#000000" points="24,-173.2 229.693,-173.2 "/>
<text text-anchor="middle" x="126.8465" y="-156.6" font-family="Times,serif" font-size="14.00" fill="#000000">lastCommitHash</text>
<polyline fill="none" stroke="#000000" points="24,-148.4 229.693,-148.4 "/>
<text text-anchor="middle" x="126.8465" y="-131.8" font-family="Times,serif" font-size="14.00" fill="#000000">consensusRoot</text>
<polyline fill="none" stroke="#000000" points="24,-123.6 229.693,-123.6 "/>
<text text-anchor="middle" x="126.8465" y="-107" font-family="Times,serif" font-size="14.00" fill="#000000">stateCommitment</text>
<polyline fill="none" stroke="#000000" points="24,-98.8 229.693,-98.8 "/>
<text text-anchor="middle" x="126.8465" y="-82.2" font-family="Times,serif" font-size="14.00" fill="#000000">availableDataOriginalSharesUsed</text>
<polyline fill="none" stroke="#000000" points="24,-74 229.693,-74 "/>
<text text-anchor="middle" x="126.8465" y="-57.4" font-family="Times,serif" font-size="14.00" fill="#000000">availableDataRoot</text>
<polyline fill="none" stroke="#000000" points="24,-49.2 229.693,-49.2 "/>
<text text-anchor="middle" x="126.8465" y="-32.6" font-family="Times,serif" font-size="14.00" fill="#000000">proposerAddress</text>
</g>
<!-- struct1&#45;&gt;struct4 -->
<g id="edge2" class="edge">
<title>struct1:f7&#45;&gt;struct4</title>
<path fill="none" stroke="#000000" d="M229.8465,-62C286.1347,-62 350.4939,-63.3197 395.0809,-64.4431"/>
<polygon fill="#000000" stroke="#000000" points="395.0404,-67.9431 405.1271,-64.7013 395.2203,-60.9454 395.0404,-67.9431"/>
<text text-anchor="middle" x="307.5114" y="-67.2" font-family="Times,serif" font-size="14.00" fill="#000000">Merkle root of</text>
</g>
<!-- struct1&#45;&gt;struct4 -->
<!-- struct1&#45;&gt;struct3 -->
<!-- struct1&#45;&gt;struct2 -->
<g id="edge1" class="edge">
<title>struct1:f3&#45;&gt;struct2</title>
<path fill="none" stroke="#000000" d="M229.8465,-161C287.9605,-161 354.6033,-164.5108 399.2655,-167.3719"/>
<polygon fill="#000000" stroke="#000000" points="399.0809,-170.8672 409.2878,-168.0267 399.5373,-163.8821 399.0809,-170.8672"/>
</g>
</g>
</svg>
