<?xml version="1.0" encoding="UTF-8" standalone="no"?>
<!DOCTYPE svg PUBLIC "-//W3C//DTD SVG 1.1//EN"
 "http://www.w3.org/Graphics/SVG/1.1/DTD/svg11.dtd">
<!-- Generated by graphviz version 2.40.1 (20161225.0304)
 -->
<!-- Title: G Pages: 1 -->
<svg width="280pt" height="273pt"
 viewBox="0.00 0.00 280.00 273.00" xmlns="http://www.w3.org/2000/svg" xmlns:xlink="http://www.w3.org/1999/xlink">
<g id="graph0" class="graph" transform="scale(1 1) rotate(0) translate(4 269)">
<title>G</title>
<polygon fill="#ffffff" stroke="transparent" points="-4,4 -4,-269 276,-269 276,4 -4,4"/>
<!-- share -->
<g id="node1" class="node">
<title>share</title>
<polygon fill="none" stroke="#000000" stroke-width="0" points="0,-.5 0,-264.5 272,-264.5 272,-.5 0,-.5"/>
<polygon fill="none" stroke="#000000" points="8,-132.5 8,-260.5 136,-260.5 136,-132.5 8,-132.5"/>
<polygon fill="none" stroke="#000000" points="9,-227.5 9,-259.5 41,-259.5 41,-227.5 9,-227.5"/>
<polygon fill="none" stroke="#000000" points="41,-227.5 41,-259.5 73,-259.5 73,-227.5 41,-227.5"/>
<polygon fill="none" stroke="#000000" points="73,-227.5 73,-259.5 104,-259.5 104,-227.5 73,-227.5"/>
<polygon fill="none" stroke="#000000" points="104,-227.5 104,-259.5 135,-259.5 135,-227.5 104,-227.5"/>
<polygon fill="none" stroke="#000000" points="9,-195.5 9,-227.5 41,-227.5 41,-195.5 9,-195.5"/>
<polygon fill="none" stroke="#000000" points="41,-195.5 41,-227.5 73,-227.5 73,-195.5 41,-195.5"/>
<polygon fill="none" stroke="#000000" points="73,-195.5 73,-227.5 104,-227.5 104,-195.5 73,-195.5"/>
<polygon fill="none" stroke="#000000" points="104,-195.5 104,-227.5 135,-227.5 135,-195.5 104,-195.5"/>
<polygon fill="none" stroke="#000000" points="9,-164.5 9,-195.5 41,-195.5 41,-164.5 9,-164.5"/>
<polygon fill="none" stroke="#000000" points="41,-164.5 41,-195.5 73,-195.5 73,-164.5 41,-164.5"/>
<polygon fill="none" stroke="#000000" points="73,-164.5 73,-195.5 104,-195.5 104,-164.5 73,-164.5"/>
<polygon fill="none" stroke="#000000" points="104,-164.5 104,-195.5 135,-195.5 135,-164.5 104,-164.5"/>
<polygon fill="none" stroke="#000000" points="9,-133.5 9,-164.5 41,-164.5 41,-133.5 9,-133.5"/>
<polygon fill="none" stroke="#000000" points="41,-133.5 41,-164.5 73,-164.5 73,-133.5 41,-133.5"/>
<polygon fill="none" stroke="#000000" points="73,-133.5 73,-164.5 104,-164.5 104,-133.5 73,-133.5"/>
<polygon fill="none" stroke="#000000" points="104,-133.5 104,-164.5 135,-164.5 135,-133.5 104,-133.5"/>
<polygon fill="none" stroke="#000000" points="136,-132.5 136,-260.5 264,-260.5 264,-132.5 136,-132.5"/>
<polygon fill="none" stroke="#000000" points="137,-227.5 137,-259.5 169,-259.5 169,-227.5 137,-227.5"/>
<polygon fill="none" stroke="#000000" points="169,-227.5 169,-259.5 201,-259.5 201,-227.5 169,-227.5"/>
<polygon fill="none" stroke="#000000" points="201,-227.5 201,-259.5 232,-259.5 232,-227.5 201,-227.5"/>
<polygon fill="none" stroke="#000000" points="232,-227.5 232,-259.5 263,-259.5 263,-227.5 232,-227.5"/>
<polygon fill="none" stroke="#000000" points="137,-195.5 137,-227.5 169,-227.5 169,-195.5 137,-195.5"/>
<polygon fill="none" stroke="#000000" points="169,-195.5 169,-227.5 201,-227.5 201,-195.5 169,-195.5"/>
<polygon fill="none" stroke="#000000" points="201,-195.5 201,-227.5 232,-227.5 232,-195.5 201,-195.5"/>
<polygon fill="none" stroke="#000000" points="232,-195.5 232,-227.5 263,-227.5 263,-195.5 232,-195.5"/>
<polygon fill="none" stroke="#000000" points="137,-164.5 137,-195.5 169,-195.5 169,-164.5 137,-164.5"/>
<polygon fill="none" stroke="#000000" points="169,-164.5 169,-195.5 201,-195.5 201,-164.5 169,-164.5"/>
<polygon fill="none" stroke="#000000" points="201,-164.5 201,-195.5 232,-195.5 232,-164.5 201,-164.5"/>
<polygon fill="none" stroke="#000000" points="232,-164.5 232,-195.5 263,-195.5 263,-164.5 232,-164.5"/>
<polygon fill="none" stroke="#000000" points="137,-133.5 137,-164.5 169,-164.5 169,-133.5 137,-133.5"/>
<polygon fill="none" stroke="#000000" points="169,-133.5 169,-164.5 201,-164.5 201,-133.5 169,-133.5"/>
<polygon fill="none" stroke="#000000" points="201,-133.5 201,-164.5 232,-164.5 232,-133.5 201,-133.5"/>
<polygon fill="none" stroke="#000000" points="232,-133.5 232,-164.5 263,-164.5 263,-133.5 232,-133.5"/>
<polygon fill="none" stroke="#000000" points="8,-4.5 8,-132.5 136,-132.5 136,-4.5 8,-4.5"/>
<polygon fill="none" stroke="#000000" points="9,-99.5 9,-131.5 41,-131.5 41,-99.5 9,-99.5"/>
<polygon fill="none" stroke="#000000" points="41,-99.5 41,-131.5 73,-131.5 73,-99.5 41,-99.5"/>
<polygon fill="none" stroke="#000000" points="73,-99.5 73,-131.5 104,-131.5 104,-99.5 73,-99.5"/>
<polygon fill="none" stroke="#000000" points="104,-99.5 104,-131.5 135,-131.5 135,-99.5 104,-99.5"/>
<polygon fill="none" stroke="#000000" points="9,-67.5 9,-99.5 41,-99.5 41,-67.5 9,-67.5"/>
<polygon fill="none" stroke="#000000" points="41,-67.5 41,-99.5 73,-99.5 73,-67.5 41,-67.5"/>
<polygon fill="none" stroke="#000000" points="73,-67.5 73,-99.5 104,-99.5 104,-67.5 73,-67.5"/>
<polygon fill="none" stroke="#000000" points="104,-67.5 104,-99.5 135,-99.5 135,-67.5 104,-67.5"/>
<polygon fill="none" stroke="#000000" points="9,-36.5 9,-67.5 41,-67.5 41,-36.5 9,-36.5"/>
<polygon fill="none" stroke="#000000" points="41,-36.5 41,-67.5 73,-67.5 73,-36.5 41,-36.5"/>
<polygon fill="none" stroke="#000000" points="73,-36.5 73,-67.5 104,-67.5 104,-36.5 73,-36.5"/>
<polygon fill="none" stroke="#000000" points="104,-36.5 104,-67.5 135,-67.5 135,-36.5 104,-36.5"/>
<polygon fill="none" stroke="#000000" points="9,-5.5 9,-36.5 41,-36.5 41,-5.5 9,-5.5"/>
<polygon fill="none" stroke="#000000" points="41,-5.5 41,-36.5 73,-36.5 73,-5.5 41,-5.5"/>
<polygon fill="none" stroke="#000000" points="73,-5.5 73,-36.5 104,-36.5 104,-5.5 73,-5.5"/>
<polygon fill="none" stroke="#000000" points="104,-5.5 104,-36.5 135,-36.5 135,-5.5 104,-5.5"/>
<polygon fill="none" stroke="#000000" points="136,-4.5 136,-132.5 264,-132.5 264,-4.5 136,-4.5"/>
<polygon fill="none" stroke="#000000" points="137,-99.5 137,-131.5 169,-131.5 169,-99.5 137,-99.5"/>
<polygon fill="none" stroke="#000000" points="169,-99.5 169,-131.5 201,-131.5 201,-99.5 169,-99.5"/>
<polygon fill="none" stroke="#000000" points="201,-99.5 201,-131.5 232,-131.5 232,-99.5 201,-99.5"/>
<polygon fill="none" stroke="#000000" points="232,-99.5 232,-131.5 263,-131.5 263,-99.5 232,-99.5"/>
<polygon fill="none" stroke="#000000" points="137,-67.5 137,-99.5 169,-99.5 169,-67.5 137,-67.5"/>
<polygon fill="none" stroke="#000000" points="169,-67.5 169,-99.5 201,-99.5 201,-67.5 169,-67.5"/>
<polygon fill="none" stroke="#000000" points="201,-67.5 201,-99.5 232,-99.5 232,-67.5 201,-67.5"/>
<polygon fill="none" stroke="#000000" points="232,-67.5 232,-99.5 263,-99.5 263,-67.5 232,-67.5"/>
<polygon fill="none" stroke="#000000" points="137,-36.5 137,-67.5 169,-67.5 169,-36.5 137,-36.5"/>
<polygon fill="none" stroke="#000000" points="169,-36.5 169,-67.5 201,-67.5 201,-36.5 169,-36.5"/>
<polygon fill="none" stroke="#000000" points="201,-36.5 201,-67.5 232,-67.5 232,-36.5 201,-36.5"/>
<polygon fill="none" stroke="#000000" points="232,-36.5 232,-67.5 263,-67.5 263,-36.5 232,-36.5"/>
<polygon fill="none" stroke="#000000" points="137,-5.5 137,-36.5 169,-36.5 169,-5.5 137,-5.5"/>
<polygon fill="none" stroke="#000000" points="169,-5.5 169,-36.5 201,-36.5 201,-5.5 169,-5.5"/>
<polygon fill="none" stroke="#000000" points="201,-5.5 201,-36.5 232,-36.5 232,-5.5 201,-5.5"/>
<polygon fill="none" stroke="#000000" points="232,-5.5 232,-36.5 263,-36.5 263,-5.5 232,-5.5"/>
</g>
</g>
</svg>
