<?xml version="1.0" encoding="UTF-8" standalone="no"?>
<!DOCTYPE svg PUBLIC "-//W3C//DTD SVG 1.1//EN"
 "http://www.w3.org/Graphics/SVG/1.1/DTD/svg11.dtd">
<!-- Generated by graphviz version 2.40.1 (20161225.0304)
 -->
<!-- Title: G Pages: 1 -->
<svg width="358pt" height="59pt"
 viewBox="0.00 0.00 358.00 59.00" xmlns="http://www.w3.org/2000/svg" xmlns:xlink="http://www.w3.org/1999/xlink">
<g id="graph0" class="graph" transform="scale(1 1) rotate(0) translate(4 55)">
<title>G</title>
<polygon fill="#ffffff" stroke="transparent" points="-4,4 -4,-55 354,-55 354,4 -4,4"/>
<!-- share -->
<g id="node1" class="node">
<title>share</title>
<polygon fill="none" stroke="#000000" stroke-width="0" points="0,-.5 0,-50.5 350,-50.5 350,-.5 0,-.5"/>
<text text-anchor="start" x="8" y="-33.9" font-family="Times,serif" font-size="14.00" fill="#000000">0</text>
<text text-anchor="start" x="25" y="-33.9" font-family="Times,serif" font-size="14.00" fill="#000000">1</text>
<text text-anchor="start" x="104" y="-33.9" font-family="Times,serif" font-size="14.00" fill="#000000">80</text>
<text text-anchor="start" x="238" y="-33.9" font-family="Times,serif" font-size="14.00" fill="#000000">200</text>
<text text-anchor="start" x="321" y="-33.9" font-family="Times,serif" font-size="14.00" fill="#000000">256</text>
<polygon fill="none" stroke="#000000" points="8,-4.5 8,-30.5 25,-30.5 25,-4.5 8,-4.5"/>
<text text-anchor="start" x="13" y="-12.9" font-family="Times,serif" font-size="14.00" fill="#000000">*</text>
<polygon fill="none" stroke="#000000" points="25,-4.5 25,-30.5 104,-30.5 104,-4.5 25,-4.5"/>
<text text-anchor="start" x="36.1171" y="-12.9" font-family="Times,serif" font-size="14.00" fill="#000000">end of tx2</text>
<polygon fill="none" stroke="#000000" points="104,-4.5 104,-30.5 158,-30.5 158,-4.5 104,-4.5"/>
<text text-anchor="start" x="108.8415" y="-12.9" font-family="Times,serif" font-size="14.00" fill="#000000">len(tx3)</text>
<polygon fill="none" stroke="#000000" points="158,-4.5 158,-30.5 238,-30.5 238,-4.5 158,-4.5"/>
<text text-anchor="start" x="189.0547" y="-12.9" font-family="Times,serif" font-size="14.00" fill="#000000">tx3</text>
<polygon fill="none" stroke="#000000" points="238,-4.5 238,-30.5 321,-30.5 321,-4.5 238,-4.5"/>
<text text-anchor="start" x="242.5722" y="-12.9" font-family="Times,serif" font-size="14.00" fill="#000000">zero&#45;padding</text>
</g>
</g>
</svg>
