<?xml version="1.0" encoding="UTF-8" standalone="no"?>
<!DOCTYPE svg PUBLIC "-//W3C//DTD SVG 1.1//EN"
 "http://www.w3.org/Graphics/SVG/1.1/DTD/svg11.dtd">
<!-- Generated by graphviz version 2.40.1 (20161225.0304)
 -->
<!-- Title: G Pages: 1 -->
<svg width="317pt" height="59pt"
 viewBox="0.00 0.00 317.00 59.00" xmlns="http://www.w3.org/2000/svg" xmlns:xlink="http://www.w3.org/1999/xlink">
<g id="graph0" class="graph" transform="scale(1 1) rotate(0) translate(4 55)">
<title>G</title>
<polygon fill="#ffffff" stroke="transparent" points="-4,4 -4,-55 313,-55 313,4 -4,4"/>
<!-- share -->
<g id="node1" class="node">
<title>share</title>
<polygon fill="none" stroke="#000000" points="0,-.5 0,-50.5 309,-50.5 309,-.5 0,-.5"/>
<text text-anchor="start" x="8.5" y="-33.9" font-family="Times,serif" font-size="14.00" fill="#000000">0</text>
<text text-anchor="start" x="25.5" y="-33.9" font-family="Times,serif" font-size="14.00" fill="#000000">1</text>
<text text-anchor="start" x="104.5" y="-33.9" font-family="Times,serif" font-size="14.00" fill="#000000">80</text>
<text text-anchor="start" x="174.5" y="-33.9" font-family="Times,serif" font-size="14.00" fill="#000000">150</text>
<text text-anchor="start" x="280.5" y="-33.9" font-family="Times,serif" font-size="14.00" fill="#000000">256</text>
<polygon fill="none" stroke="#000000" points="8.5,-4.5 8.5,-30.5 25.5,-30.5 25.5,-4.5 8.5,-4.5"/>
<text text-anchor="start" x="13.5" y="-12.9" font-family="Times,serif" font-size="14.00" fill="#000000">*</text>
<polygon fill="none" stroke="#000000" points="25.5,-4.5 25.5,-30.5 104.5,-30.5 104.5,-4.5 25.5,-4.5"/>
<text text-anchor="start" x="36.6171" y="-12.9" font-family="Times,serif" font-size="14.00" fill="#000000">end of tx2</text>
<polygon fill="none" stroke="#000000" points="104.5,-4.5 104.5,-30.5 174.5,-30.5 174.5,-4.5 104.5,-4.5"/>
<text text-anchor="start" x="130.5547" y="-12.9" font-family="Times,serif" font-size="14.00" fill="#000000">tx3</text>
<polygon fill="none" stroke="#000000" points="174.5,-4.5 174.5,-30.5 280.5,-30.5 280.5,-4.5 174.5,-4.5"/>
<text text-anchor="start" x="190.5722" y="-12.9" font-family="Times,serif" font-size="14.00" fill="#000000">zero&#45;padding</text>
</g>
</g>
</svg>
